<?xml version="1.0" standalone="no"?>
<!DOCTYPE svg PUBLIC "-//W3C//DTD SVG 20010904//EN"
 "http://www.w3.org/TR/2001/REC-SVG-20010904/DTD/svg10.dtd">
<svg version="1.0" xmlns="http://www.w3.org/2000/svg"
 width="700.000000pt" height="700.000000pt" viewBox="0 0 700.000000 700.000000"
 preserveAspectRatio="xMidYMid meet">
<metadata>
Created by potrace 1.11, written by Peter Selinger 2001-2013
</metadata>
<g transform="translate(0.000000,700.000000) scale(0.100000,-0.100000)"
fill="#000000" stroke="none">
<path d="M5280 6933 c-397 -33 -728 -306 -829 -684 -25 -94 -32 -152 -33 -284
-1 -58 -3 -105 -6 -105 -2 0 -51 14 -108 30 -373 109 -854 145 -1208 91 -34
-6 -77 -12 -96 -15 -157 -23 -355 -75 -525 -138 -109 -40 -142 -54 -305 -130
-72 -34 -283 -155 -315 -180 -5 -4 -46 -33 -90 -64 -457 -320 -836 -805 -1043
-1334 -61 -158 -130 -393 -148 -509 -3 -18 -8 -43 -10 -55 -11 -55 -29 -198
-39 -306 -11 -124 -5 -438 10 -535 2 -16 7 -52 10 -80 23 -193 93 -467 172
-670 50 -131 172 -375 244 -490 68 -108 211 -306 268 -370 90 -102 315 -318
401 -386 274 -218 552 -372 875 -486 102 -36 220 -71 265 -79 14 -3 50 -11 80
-19 74 -18 163 -34 230 -41 30 -3 61 -7 69 -10 67 -22 569 -21 678 0 12 3 46
7 76 10 29 4 89 13 133 22 43 8 90 18 104 20 52 10 208 55 305 87 295 100 570
245 820 433 147 110 180 139 315 274 149 149 154 155 318 365 21 27 132 196
132 201 0 3 8 18 19 32 98 139 288 605 326 800 1 9 8 35 14 57 6 22 13 57 17
79 3 21 8 48 10 60 3 11 7 39 10 61 3 22 7 54 9 70 17 115 20 422 20 2240 0
1807 -2 2040 -15 2040 -125 -4 -292 -45 -395 -98 -260 -132 -444 -380 -502
-679 -4 -18 -8 -472 -10 -1008 -7 -2275 -8 -2341 -28 -2440 -2 -14 -7 -39 -10
-55 -11 -69 -57 -233 -89 -318 -232 -620 -715 -1071 -1356 -1265 -57 -17 -159
-40 -255 -57 -112 -19 -365 -25 -505 -12 -693 67 -1312 495 -1630 1128 -69
135 -150 370 -173 499 -20 110 -27 158 -34 250 -15 201 -2 385 41 595 23 112
91 307 151 433 265 552 760 960 1345 1107 180 45 276 57 468 60 200 2 361 -17
532 -62 153 -41 146 -43 202 62 92 176 179 424 204 585 3 19 9 53 13 75 4 22
7 -603 6 -1390 -1 -786 -5 -1443 -9 -1460 -30 -130 -65 -226 -117 -315 -183
-316 -553 -501 -914 -455 -373 47 -692 327 -784 690 -20 78 -22 101 -26 215
-5 206 57 426 173 609 70 110 247 296 432 451 36 30 67 57 70 60 5 6 148 125
360 299 195 161 417 367 406 378 -4 4 -101 30 -143 38 -101 20 -267 36 -378
35 -124 -1 -161 -3 -230 -14 -16 -3 -52 -8 -80 -12 -70 -8 -213 -46 -320 -84
-446 -159 -828 -505 -1034 -935 -92 -192 -144 -361 -172 -565 -14 -101 -17
-348 -6 -441 17 -145 60 -333 97 -424 4 -11 14 -36 21 -55 76 -209 233 -450
410 -628 298 -301 657 -478 1094 -539 109 -16 417 -9 528 12 15 3 37 7 50 9
373 70 734 270 1001 555 22 24 46 49 52 55 48 50 181 248 231 343 104 199 160
369 199 603 17 98 18 248 18 2134 1 1797 -1 2029 -14 2030 -8 1 -31 0 -50 -1z"/>
</g>
</svg>
