<?xml version="1.0" encoding="utf-8"?>
<!-- Generator: Adobe Illustrator 16.0.0, SVG Export Plug-In . SVG Version: 6.00 Build 0)  -->
<!DOCTYPE svg PUBLIC "-//W3C//DTD SVG 1.1//EN" "http://www.w3.org/Graphics/SVG/1.1/DTD/svg11.dtd">
<svg version="1.1" id="Layer_1" xmlns="http://www.w3.org/2000/svg" xmlns:xlink="http://www.w3.org/1999/xlink" x="0px" y="0px"
	 width="283.727px" height="48.546px" viewBox="0 0 283.727 48.546" enable-background="new 0 0 283.727 48.546"
	 xml:space="preserve">
<g>
	<path fill="#F27321" d="M67.744,2.234v8.899c0,4.352-3.041,6.724-6.779,6.724c-4.045,0-6.861-2.512-6.861-6.389
		c0-3.821,2.9-6.388,6.861-6.388c2.148,0,4.213,0.92,5.217,2.4c-0.055-0.477-0.055-1.145-0.055-1.675V2.234
		c0-0.558,0.277-0.948,0.809-0.948S67.744,1.676,67.744,2.234 M60.965,16.323c2.9,0,5.133-1.925,5.133-4.855
		c0-3.264-2.232-4.854-5.133-4.854s-5.162,1.73-5.162,4.854C55.803,14.594,58.064,16.323,60.965,16.323"/>
	<path fill="#F27321" d="M75.441,5.081c3.961,0,6.863,2.566,6.863,6.388c0,3.823-2.902,6.389-6.863,6.389s-6.863-2.566-6.863-6.389
		C68.578,7.647,71.48,5.081,75.441,5.081 M75.441,6.614c-2.9,0-5.16,1.729-5.16,4.854c0,3.125,2.26,4.855,5.16,4.855
		c2.902,0,5.162-1.73,5.162-4.855C80.604,8.344,78.344,6.614,75.441,6.614"/>
	<path fill="#F27321" d="M85.314,18.22c0.922,1.2,2.344,2.064,4.465,2.064c3.264,0,5.051-1.868,5.244-4.993
		c-1.061,1.506-3.041,2.455-5.217,2.455c-4.072,0-6.807-2.483-6.807-6.36c0-3.767,2.928-6.305,6.807-6.305
		c3.795,0,6.836,2.427,6.836,6.974v2.567c0,4.351-2.346,7.197-6.893,7.197c-1.951,0-3.682-0.531-5.049-1.813
		c-0.529-0.475-1.031-1.145-1.031-1.618c0-0.475,0.361-0.781,0.781-0.781C84.84,17.607,85.035,17.857,85.314,18.22 M89.861,16.267
		c2.902,0,5.08-1.869,5.08-4.854c0-2.762-2.346-4.798-5.135-4.798c-2.902,0-5.105,1.757-5.105,4.826
		C84.701,14.538,86.961,16.267,89.861,16.267"/>
	<path fill="#F27321" d="M111.117,2.234v8.899c0,4.352-3.041,6.724-6.779,6.724c-4.045,0-6.861-2.512-6.861-6.389
		c0-3.821,2.9-6.388,6.861-6.388c2.148,0,4.213,0.92,5.217,2.4c-0.057-0.477-0.057-1.145-0.057-1.675V2.234
		c0-0.558,0.279-0.948,0.811-0.948S111.117,1.676,111.117,2.234 M104.338,16.323c2.9,0,5.133-1.925,5.133-4.855
		c0-3.264-2.232-4.854-5.133-4.854s-5.162,1.73-5.162,4.854C99.176,14.594,101.438,16.323,104.338,16.323"/>
	<path fill="#F27321" d="M125.594,11.691v5.05c0,0.558-0.277,0.948-0.809,0.948s-0.811-0.391-0.811-0.948v-0.223
		c0-0.334,0-0.753,0.057-1.116c-0.977,1.534-3.041,2.455-5.217,2.455c-3.961,0-6.863-2.567-6.863-6.389
		c0-3.821,2.902-6.388,6.863-6.388C122.553,5.081,125.594,7.368,125.594,11.691 M118.814,16.323c2.9,0,5.105-1.59,5.105-4.855
		c0-2.929-2.205-4.854-5.105-4.854c-2.902,0-5.16,1.73-5.16,4.854C113.654,14.594,115.912,16.323,118.814,16.323"/>
	<path fill="#F27321" d="M128.326,6.196v4.743c0,3.291,1.813,5.217,4.967,5.217c3.096,0,4.965-1.897,4.965-5.357V6.196
		c0-0.558,0.279-0.948,0.809-0.948s0.809,0.39,0.809,0.948v8.454c0,4.408-2.566,7.169-6.332,7.169c-1.953,0-3.85-0.447-5.162-1.813
		c-0.529-0.558-1.031-1.145-1.031-1.619c0-0.446,0.363-0.809,0.752-0.809c0.418,0,0.643,0.279,0.893,0.614
		c1.033,1.396,2.316,2.093,4.604,2.093c2.539,0,4.547-1.981,4.66-5.078c-1.031,1.562-3.014,2.455-4.939,2.455
		c-4.184,0-6.611-2.817-6.611-6.639V6.196c0-0.558,0.279-0.948,0.809-0.948C128.047,5.248,128.326,5.638,128.326,6.196"/>
	<path fill="#F27321" d="M142.912,15.067c1.033,0.725,2.4,1.256,4.186,1.256c1.953,0,4.547-0.642,4.547-2.483
		c0-1.535-1.254-1.758-3.098-1.758h-2.23c-2.287,0-4.799-0.362-4.799-3.292c0-2.595,2.984-3.71,5.691-3.71
		c1.564,0,3.266,0.334,4.436,0.977c0.418,0.223,0.727,0.445,0.727,0.892c0,0.391-0.309,0.753-0.727,0.753
		c-0.361,0-0.781-0.251-1.227-0.446c-0.893-0.39-2.037-0.642-3.18-0.642c-1.869,0-4.02,0.642-4.02,2.176
		c0,1.423,1.201,1.758,2.764,1.758h2.873c2.594,0,4.492,0.865,4.492,3.292c0,2.595-2.791,4.017-6.193,4.017
		c-1.869,0-3.711-0.446-5.162-1.366c-0.391-0.252-0.893-0.614-0.893-1.117c0-0.447,0.277-0.781,0.725-0.781
		C142.188,14.593,142.551,14.816,142.912,15.067"/>
	<path fill="#F27321" d="M161.352,6.196v4.743c0,3.291,1.813,5.217,4.965,5.217c3.098,0,4.965-1.897,4.965-5.357V6.196
		c0-0.558,0.279-0.948,0.811-0.948c0.529,0,0.807,0.39,0.807,0.948v8.454c0,4.408-2.566,7.169-6.332,7.169
		c-1.951,0-3.85-0.447-5.16-1.813c-0.531-0.558-1.033-1.145-1.033-1.619c0-0.446,0.363-0.809,0.754-0.809
		c0.418,0,0.643,0.279,0.893,0.614c1.033,1.396,2.316,2.093,4.604,2.093c2.539,0,4.547-1.981,4.658-5.078
		c-1.031,1.562-3.012,2.455-4.938,2.455c-4.186,0-6.613-2.817-6.613-6.639V6.196c0-0.558,0.279-0.948,0.811-0.948
		S161.352,5.638,161.352,6.196"/>
	<path fill="#F27321" d="M180.736,5.081c3.961,0,6.863,2.566,6.863,6.388c0,3.823-2.902,6.389-6.863,6.389
		c-3.963,0-6.863-2.566-6.863-6.389C173.873,7.647,176.773,5.081,180.736,5.081 M180.736,6.614c-2.902,0-5.16,1.729-5.16,4.854
		c0,3.125,2.258,4.855,5.16,4.855s5.16-1.73,5.16-4.855C185.896,8.344,183.639,6.614,180.736,6.614"/>
	<path fill="#F27321" d="M190.609,18.22c0.92,1.2,2.344,2.064,4.463,2.064c3.266,0,5.051-1.868,5.246-4.993
		c-1.061,1.506-3.041,2.455-5.217,2.455c-4.072,0-6.807-2.483-6.807-6.36c0-3.767,2.928-6.305,6.807-6.305
		c3.795,0,6.834,2.427,6.834,6.974v2.567c0,4.351-2.344,7.197-6.891,7.197c-1.951,0-3.682-0.531-5.049-1.813
		c-0.529-0.475-1.033-1.145-1.033-1.618c0-0.475,0.363-0.781,0.783-0.781C190.135,17.607,190.33,17.857,190.609,18.22
		 M195.156,16.267c2.902,0,5.078-1.869,5.078-4.854c0-2.762-2.344-4.798-5.133-4.798c-2.902,0-5.105,1.757-5.105,4.826
		C189.996,14.538,192.256,16.267,195.156,16.267"/>
	<path fill="#F27321" d="M216.412,11.691v5.05c0,0.558-0.277,0.948-0.809,0.948s-0.809-0.391-0.809-0.948v-0.223
		c0-0.334,0-0.753,0.055-1.116c-0.977,1.534-3.041,2.455-5.217,2.455c-3.961,0-6.863-2.567-6.863-6.389
		c0-3.821,2.902-6.388,6.863-6.388C213.371,5.081,216.412,7.368,216.412,11.691 M209.633,16.323c2.902,0,5.105-1.59,5.105-4.855
		c0-2.929-2.203-4.854-5.105-4.854c-2.9,0-5.16,1.73-5.16,4.854C204.473,14.594,206.732,16.323,209.633,16.323"/>
	<path fill="#F27321" d="M223.299,13.839c-0.166-0.696-0.223-1.702-0.223-2.817V6.196c0-0.557,0.279-0.948,0.809-0.948
		c0.531,0,0.809,0.391,0.809,0.948v5.272c0,2.846,0.895,4.827,3.488,4.827c2.539,0,3.488-1.925,3.488-4.715V6.196
		c0-0.557,0.277-0.948,0.809-0.948c0.529,0,0.809,0.391,0.809,0.948v5.384c0,2.79,0.92,4.715,3.486,4.715
		c2.596,0,3.488-1.98,3.488-4.827V6.196c0-0.557,0.279-0.948,0.809-0.948c0.531,0,0.811,0.391,0.811,0.948v4.827
		c0,1.115-0.057,2.121-0.225,2.817c-0.613,2.54-2.371,4.018-4.883,4.018c-2.287,0-3.682-1.171-4.295-2.901
		c-0.615,1.73-2.01,2.901-4.297,2.901C225.67,17.857,223.912,16.379,223.299,13.839"/>
	<path fill="#F27321" d="M255.322,9.042c0,2.539-1.982,3.348-4.854,3.348h-5.832c0.447,2.482,2.455,3.934,5.219,3.934
		c0.947,0,2.119-0.252,3.096-0.782c0.361-0.196,0.809-0.559,1.172-0.559c0.391,0,0.697,0.335,0.697,0.754
		c0,0.39-0.363,0.698-0.727,0.921c-1.338,0.836-2.984,1.199-4.324,1.199c-3.934,0-6.918-2.343-6.918-6.333
		c0-3.906,2.902-6.444,6.863-6.444C252.504,5.081,255.322,6.531,255.322,9.042 M250.469,10.911c1.701,0,3.18-0.167,3.18-1.869
		c0-1.702-2.035-2.427-3.934-2.427c-2.818,0-4.826,1.506-5.133,4.296H250.469z"/>
	<path fill="#F27321" d="M269.52,11.691v5.05c0,0.558-0.279,0.948-0.811,0.948c-0.527,0-0.807-0.391-0.807-0.948v-0.223
		c0-0.334,0-0.753,0.055-1.116c-0.977,1.534-3.041,2.455-5.217,2.455c-3.961,0-6.863-2.567-6.863-6.389
		c0-3.821,2.902-6.388,6.863-6.388C266.479,5.081,269.52,7.368,269.52,11.691 M262.74,16.323c2.902,0,5.105-1.59,5.105-4.855
		c0-2.929-2.203-4.854-5.105-4.854s-5.16,1.73-5.16,4.854C257.58,14.594,259.838,16.323,262.74,16.323"/>
	<path fill="#F27321" d="M279.254,6.977c-0.447,0-0.922-0.334-2.01-0.334c-3.014,0-4.715,1.925-4.715,5.218v4.882
		c0,0.558-0.279,0.948-0.811,0.948c-0.527,0-0.809-0.39-0.809-0.948v-5.05c0-3.822,2.289-6.611,6.307-6.611
		c0.557,0,1.563,0.111,2.176,0.39c0.334,0.14,0.613,0.391,0.613,0.782C280.006,6.698,279.699,6.977,279.254,6.977"/>
	<line fill="#F27321" x1="27.092" y1="27.505" x2="27.092" y2="8.496"/>
	<path fill-rule="evenodd" clip-rule="evenodd" fill="#F27321" d="M40.742,1.289c-3.42,0.01-6.191,2.782-6.195,6.205v0.016v5.443
		v14.429c0,7.536-6.131,13.667-13.666,13.667c-7.537,0-13.668-6.132-13.668-13.668c0-7.536,6.131-13.667,13.668-13.667
		c1.512,0,2.965,0.248,4.324,0.705c1.004-1.593,1.883-4.187,1.887-5.911v6.706l0,0V8.497c-1.953-0.643-4.041-0.996-6.211-0.996
		C9.902,7.501,1,16.402,1,27.38c0,10.98,8.902,19.879,19.881,19.879s19.877-8.899,19.877-19.878V13.713V1.289H40.742z"/>
	<polygon fill="#F27321" points="27.092,15.213 27.092,8.497 27.092,15.213 	"/>
	<path fill="#F27321" d="M33.287,1.289c-3.42,0.01-6.189,2.782-6.195,6.205v0.016v9.112v10.75v0.018
		c0,0.039-0.004,0.077-0.006,0.116c-0.066,3.367-2.822,6.088-6.205,6.088c-3.385,0-6.139-2.721-6.205-6.088
		c-0.002-0.042-0.008-0.083-0.008-0.125c0-1.18,0.371-3.105,1.738-4.721c2.119-2.471,5.908-4.905,7.994-7.196
		c-1.117-0.33-2.299-0.507-3.52-0.507c-6.863,0-12.426,5.564-12.426,12.425c0,6.861,5.563,12.424,12.426,12.424
		c6.861,0,12.424-5.563,12.424-12.424V13.713V1.289H33.287z"/>
</g>
</svg>
