<svg viewBox="0 0 171 46" version="1.1" xmlns="http://www.w3.org/2000/svg" xmlns:xlink="http://www.w3.org/1999/xlink">
    <title>logo_2line</title>
    <g stroke="none" stroke-width="1" fill="#ff5300" fill-rule="evenodd">
        <g id="logo">
            <path d="M38.902,0.845 C35.609,0.853 32.943,3.523 32.937,6.818 L32.937,6.834 L32.937,12.076 L32.937,25.968 L32.937,25.968 C32.937,33.224 27.035,39.128 19.779,39.128 C12.523,39.128 6.621,33.222 6.621,25.966 C6.621,18.709 12.523,12.807 19.779,12.807 C21.234,12.807 22.634,13.046 23.943,13.485 C24.91,11.951 25.756,9.454 25.759,7.794 L25.759,14.25 L25.759,14.25 L25.761,14.25 L25.761,7.784 C23.878,7.165 21.867,6.826 19.779,6.826 C9.209,6.826 0.637,15.395 0.637,25.967 C0.637,36.538 9.208,45.108 19.779,45.108 C30.35,45.108 38.92,36.538 38.92,25.967 L38.92,12.807 L38.92,0.845 L38.902,0.845 Z"></path>
            <path d="M31.725,0.845 C28.432,0.853 25.766,3.523 25.762,6.818 L25.762,6.834 L25.762,15.608 L25.76,15.608 L25.76,25.959 L25.76,25.976 C25.76,26.013 25.755,26.051 25.755,26.087 C25.691,29.33 23.037,31.949 19.779,31.949 C16.521,31.949 13.869,29.33 13.804,26.087 C13.803,26.047 13.797,26.007 13.797,25.968 C13.797,24.83 14.154,22.977 15.471,21.422 C17.511,19.043 21.159,16.699 23.166,14.493 C22.093,14.177 20.955,14.005 19.778,14.005 C13.171,14.005 7.814,19.362 7.814,25.969 C7.814,32.576 13.17,37.931 19.778,37.931 C26.386,37.931 31.741,32.575 31.741,25.969 L31.741,12.807 L31.741,0.845 L31.725,0.845 Z"></path>
        </g>
        <g id="dogdaysyogawear" transform="translate(50.000000, 0.000000)">
            <path d="M14.337,1.658 L14.337,10.381 C14.337,14.647 11.356,16.972 7.691,16.972 C3.727,16.972 0.964,14.511 0.964,10.71 C0.964,6.964 3.808,4.448 7.691,4.448 C9.797,4.448 11.82,5.35 12.805,6.8 C12.75,6.334 12.75,5.678 12.75,5.158 L12.75,1.658 C12.75,1.111 13.023,0.729 13.543,0.729 C14.063,0.729 14.337,1.111 14.337,1.658 Z M7.69,15.468 C10.535,15.468 12.722,13.581 12.722,10.71 C12.722,7.51 10.534,5.952 7.69,5.952 C4.847,5.952 2.632,7.647 2.632,10.71 C2.632,13.773 4.848,15.468 7.69,15.468 Z"></path>
            <path d="M21.882,4.448 C25.766,4.448 28.61,6.964 28.61,10.71 C28.61,14.457 25.766,16.972 21.882,16.972 C17.998,16.972 15.154,14.457 15.154,10.71 C15.154,6.963 17.998,4.448 21.882,4.448 Z M21.882,5.951 C19.039,5.951 16.823,7.646 16.823,10.709 C16.823,13.772 19.039,15.467 21.882,15.467 C24.726,15.467 26.942,13.772 26.942,10.709 C26.942,7.646 24.726,5.951 21.882,5.951 Z"></path>
            <path d="M31.56,17.327 C32.464,18.503 33.859,19.35 35.937,19.35 C39.135,19.35 40.885,17.518 41.078,14.456 C40.039,15.932 38.098,16.861 35.964,16.861 C31.972,16.861 29.292,14.428 29.292,10.627 C29.292,6.935 32.162,4.447 35.964,4.447 C39.684,4.447 42.664,6.825 42.664,11.283 L42.664,13.799 C42.664,18.065 40.366,20.854 35.91,20.854 C33.995,20.854 32.299,20.334 30.96,19.077 C30.44,18.612 29.947,17.955 29.947,17.491 C29.947,17.025 30.303,16.725 30.714,16.725 C31.096,16.726 31.287,16.972 31.56,17.327 Z M36.018,15.413 C38.863,15.413 40.995,13.58 40.995,10.655 C40.995,7.947 38.698,5.951 35.964,5.951 C33.12,5.951 30.96,7.674 30.96,10.682 C30.959,13.717 33.174,15.413 36.018,15.413 Z"></path>
            <path d="M56.854,1.658 L56.854,10.381 C56.854,14.647 53.872,16.972 50.209,16.972 C46.243,16.972 43.481,14.511 43.481,10.71 C43.481,6.964 46.325,4.448 50.209,4.448 C52.314,4.448 54.338,5.35 55.322,6.8 C55.267,6.335 55.267,5.678 55.267,5.158 L55.267,1.658 C55.267,1.111 55.54,0.729 56.06,0.729 C56.58,0.729 56.854,1.111 56.854,1.658 Z M50.209,15.468 C53.053,15.468 55.24,13.581 55.24,10.71 C55.24,7.51 53.052,5.952 50.209,5.952 C47.366,5.952 45.149,7.647 45.149,10.71 C45.149,13.773 47.365,15.468 50.209,15.468 Z"></path>
            <path d="M71.044,10.928 L71.044,15.877 C71.044,16.425 70.77,16.807 70.251,16.807 C69.731,16.807 69.459,16.425 69.459,15.877 L69.459,15.659 C69.459,15.331 69.459,14.921 69.513,14.565 C68.556,16.069 66.533,16.972 64.4,16.972 C60.516,16.972 57.672,14.457 57.672,10.71 C57.672,6.964 60.516,4.448 64.4,4.448 C68.063,4.448 71.044,6.69 71.044,10.928 Z M64.399,15.468 C67.242,15.468 69.404,13.909 69.404,10.71 C69.404,7.839 67.242,5.952 64.399,5.952 C61.554,5.952 59.339,7.647 59.339,10.71 C59.339,13.773 61.555,15.468 64.399,15.468 Z"></path>
            <path d="M73.722,5.542 L73.722,10.19 C73.722,13.417 75.5,15.304 78.59,15.304 C81.625,15.304 83.456,13.444 83.456,10.053 L83.456,5.542 C83.456,4.995 83.73,4.612 84.25,4.612 C84.77,4.612 85.043,4.994 85.043,5.542 L85.043,13.828 C85.043,18.148 82.527,20.855 78.836,20.855 C76.921,20.855 75.062,20.418 73.777,19.078 C73.257,18.53 72.763,17.956 72.763,17.492 C72.763,17.054 73.119,16.699 73.502,16.699 C73.912,16.699 74.132,16.972 74.378,17.301 C75.39,18.669 76.646,19.352 78.889,19.352 C81.377,19.352 83.347,17.411 83.455,14.375 C82.444,15.906 80.503,16.781 78.615,16.781 C74.514,16.781 72.134,14.019 72.134,10.273 L72.134,5.543 C72.134,4.996 72.409,4.613 72.928,4.613 C73.448,4.612 73.722,4.994 73.722,5.542 Z"></path>
            <path d="M88.022,14.237 C89.033,14.948 90.373,15.468 92.124,15.468 C94.038,15.468 96.581,14.839 96.581,13.033 C96.581,11.53 95.35,11.31 93.546,11.31 L91.358,11.31 C89.115,11.31 86.654,10.955 86.654,8.083 C86.654,5.541 89.58,4.447 92.233,4.447 C93.764,4.447 95.432,4.774 96.581,5.403 C96.991,5.622 97.293,5.841 97.293,6.278 C97.293,6.661 96.991,7.016 96.581,7.016 C96.227,7.016 95.815,6.769 95.379,6.579 C94.503,6.195 93.383,5.949 92.262,5.949 C90.43,5.949 88.324,6.579 88.324,8.081 C88.324,9.477 89.499,9.805 91.03,9.805 L93.846,9.805 C96.39,9.805 98.248,10.653 98.248,13.031 C98.248,15.574 95.514,16.969 92.177,16.969 C90.345,16.969 88.54,16.531 87.118,15.63 C86.735,15.383 86.244,15.027 86.244,14.535 C86.244,14.097 86.516,13.77 86.955,13.77 C87.311,13.772 87.667,13.99 88.022,14.237 Z"></path>
            <path d="M3.098,30.506 L3.098,35.155 C3.098,38.381 4.874,40.268 7.965,40.268 C11,40.268 12.832,38.408 12.832,35.018 L12.832,30.506 C12.832,29.959 13.105,29.576 13.625,29.576 C14.145,29.576 14.418,29.958 14.418,30.506 L14.418,38.792 C14.418,43.112 11.902,45.82 8.211,45.82 C6.297,45.82 4.437,45.383 3.152,44.043 C2.632,43.496 2.139,42.922 2.139,42.457 C2.139,42.019 2.495,41.664 2.877,41.664 C3.288,41.664 3.506,41.937 3.753,42.265 C4.765,43.633 6.023,44.316 8.265,44.316 C10.753,44.316 12.722,42.375 12.831,39.339 C11.818,40.87 9.878,41.745 7.991,41.745 C3.889,41.745 1.51,38.984 1.51,35.237 L1.51,30.507 C1.51,29.96 1.783,29.577 2.304,29.577 C2.824,29.577 3.098,29.959 3.098,30.506 Z"></path>
            <path d="M22.101,29.413 C25.984,29.413 28.829,31.929 28.829,35.675 C28.829,39.422 25.984,41.937 22.101,41.937 C18.217,41.937 15.374,39.421 15.374,35.675 C15.374,31.928 18.217,29.413 22.101,29.413 Z M22.101,30.916 C19.258,30.916 17.041,32.612 17.041,35.674 C17.041,38.737 19.258,40.432 22.101,40.432 C24.945,40.432 27.16,38.737 27.16,35.674 C27.159,32.612 24.944,30.916 22.101,30.916 Z"></path>
            <path d="M31.779,42.292 C32.681,43.468 34.075,44.315 36.154,44.315 C39.354,44.315 41.103,42.482 41.295,39.42 C40.256,40.896 38.315,41.827 36.183,41.827 C32.19,41.827 29.51,39.393 29.51,35.592 C29.51,31.901 32.381,29.412 36.183,29.412 C39.901,29.412 42.882,31.791 42.882,36.248 L42.882,38.764 C42.882,43.03 40.585,45.819 36.125,45.819 C34.213,45.819 32.518,45.299 31.178,44.042 C30.658,43.577 30.166,42.921 30.166,42.456 C30.166,41.99 30.521,41.69 30.933,41.69 C31.314,41.69 31.506,41.937 31.779,42.292 Z M36.237,40.378 C39.08,40.378 41.213,38.545 41.213,35.619 C41.213,32.912 38.916,30.916 36.183,30.916 C33.338,30.916 31.178,32.639 31.178,35.647 C31.178,38.683 33.394,40.378 36.237,40.378 Z"></path>
            <path d="M57.072,35.893 L57.072,40.843 C57.072,41.391 56.799,41.773 56.279,41.773 C55.759,41.773 55.486,41.391 55.486,40.843 L55.486,40.625 C55.486,40.297 55.486,39.887 55.541,39.531 C54.584,41.035 52.561,41.937 50.428,41.937 C46.544,41.937 43.7,39.421 43.7,35.675 C43.7,31.929 46.544,29.413 50.428,29.413 C54.092,29.413 57.072,31.654 57.072,35.893 Z M50.428,40.432 C53.272,40.432 55.431,38.873 55.431,35.674 C55.431,32.803 53.272,30.916 50.428,30.916 C47.583,30.916 45.368,32.612 45.368,35.674 C45.368,38.737 47.583,40.432 50.428,40.432 Z"></path>
            <path d="M65.103,37.999 C64.94,37.315 64.884,36.331 64.884,35.237 L64.884,30.507 C64.884,29.96 65.157,29.577 65.676,29.577 C66.197,29.577 66.471,29.959 66.471,30.507 L66.471,35.675 C66.471,38.465 67.345,40.406 69.888,40.406 C72.377,40.406 73.306,38.519 73.306,35.784 L73.306,30.506 C73.306,29.959 73.58,29.576 74.1,29.576 C74.621,29.576 74.892,29.958 74.892,30.506 L74.892,35.784 C74.892,38.519 75.795,40.406 78.311,40.406 C80.855,40.406 81.73,38.464 81.73,35.675 L81.73,30.507 C81.73,29.96 82.003,29.577 82.523,29.577 C83.043,29.577 83.316,29.959 83.316,30.507 L83.316,35.237 C83.316,36.331 83.261,37.315 83.096,37.999 C82.494,40.487 80.772,41.937 78.311,41.937 C76.069,41.937 74.701,40.789 74.1,39.093 C73.498,40.788 72.131,41.937 69.888,41.937 C67.427,41.937 65.703,40.487 65.103,37.999 Z"></path>
            <path d="M96.493,33.296 C96.493,35.784 94.551,36.577 91.734,36.577 L86.019,36.577 C86.457,39.011 88.425,40.432 91.133,40.432 C92.063,40.432 93.21,40.187 94.169,39.667 C94.523,39.475 94.961,39.12 95.315,39.12 C95.7,39.12 96,39.449 96,39.859 C96,40.242 95.644,40.543 95.289,40.761 C93.976,41.582 92.362,41.937 91.05,41.937 C87.196,41.937 84.269,39.641 84.269,35.729 C84.269,31.901 87.113,29.413 90.996,29.413 C93.731,29.413 96.493,30.834 96.493,33.296 Z M91.734,35.128 C93.403,35.128 94.851,34.963 94.851,33.296 C94.851,31.628 92.856,30.916 90.996,30.916 C88.234,30.916 86.266,32.394 85.965,35.128 L91.734,35.128 Z"></path>
            <path d="M110.41,35.893 L110.41,40.843 C110.41,41.391 110.137,41.773 109.616,41.773 C109.097,41.773 108.824,41.391 108.824,40.843 L108.824,40.625 C108.824,40.297 108.824,39.887 108.878,39.531 C107.922,41.035 105.899,41.937 103.766,41.937 C99.883,41.937 97.038,39.421 97.038,35.675 C97.038,31.929 99.883,29.413 103.766,29.413 C107.429,29.413 110.41,31.654 110.41,35.893 Z M103.766,40.432 C106.61,40.432 108.77,38.873 108.77,35.674 C108.77,32.803 106.61,30.916 103.766,30.916 C100.921,30.916 98.706,32.612 98.706,35.674 C98.706,38.737 100.921,40.432 103.766,40.432 Z"></path>
            <path d="M119.952,31.272 C119.514,31.272 119.049,30.943 117.982,30.943 C115.029,30.943 113.362,32.83 113.362,36.057 L113.362,40.842 C113.362,41.39 113.088,41.772 112.568,41.772 C112.048,41.772 111.774,41.39 111.774,40.842 L111.774,35.892 C111.774,32.147 114.017,29.412 117.955,29.412 C118.504,29.412 119.488,29.521 120.089,29.794 C120.417,29.931 120.69,30.177 120.69,30.56 C120.689,30.998 120.389,31.272 119.952,31.272 Z"></path>
        </g>
    </g>
</svg>