<svg viewBox="0 0 85 98" version="1.1" xmlns="http://www.w3.org/2000/svg" xmlns:xlink="http://www.w3.org/1999/xlink">
    <title>logo</title>
    <g stroke="none" stroke-width="1" fill="#ff5300" fill-rule="evenodd">
        <path d="M84.325,0.002 C77.102,0.021 71.252,5.875 71.24,13.1 L71.24,13.137 L71.24,24.632 L71.24,55.101 L71.24,55.101 C71.24,71.015 58.293,83.962 42.38,83.962 C26.463,83.962 13.517,71.015 13.517,55.101 C13.517,39.186 26.463,26.24 42.38,26.24 C45.57,26.24 48.642,26.764 51.514,27.727 C53.631,24.364 55.49,18.885 55.497,15.246 L55.497,29.406 L55.497,29.406 L55.497,29.406 L55.497,15.223 C51.369,13.866 46.964,13.119 42.38,13.119 C19.194,13.119 0.397,31.913 0.397,55.1 C0.397,78.287 19.195,97.078 42.38,97.078 C65.565,97.078 84.359,78.287 84.359,55.1 L84.359,26.239 L84.359,0.002 L84.325,0.002 Z" id="Shape"></path>
        <path d="M68.579,0.002 C61.356,0.021 55.509,5.875 55.497,13.1 L55.497,13.137 L55.497,32.38 L55.497,32.38 L55.497,55.081 L55.497,55.117 C55.497,55.2 55.486,55.281 55.484,55.36 C55.343,62.473 49.524,68.219 42.38,68.219 C35.234,68.219 29.415,62.473 29.273,55.36 C29.273,55.275 29.262,55.188 29.262,55.1 C29.262,52.606 30.045,48.541 32.931,45.129 C37.407,39.911 45.41,34.77 49.812,29.932 C47.457,29.237 44.961,28.861 42.38,28.861 C27.887,28.861 16.14,40.61 16.14,55.1 C16.14,69.589 27.887,81.337 42.38,81.337 C56.87,81.337 68.618,69.589 68.618,55.1 L68.618,26.239 L68.618,0.002 L68.579,0.002 Z" id="Shape" fill-rule="nonzero"></path>
    </g>
</svg>