<?xml version="1.0" encoding="utf-8"?>
<!-- Generator: Adobe Illustrator 16.0.0, SVG Export Plug-In . SVG Version: 6.00 Build 0)  -->
<!DOCTYPE svg PUBLIC "-//W3C//DTD SVG 1.1//EN" "http://www.w3.org/Graphics/SVG/1.1/DTD/svg11.dtd">
<svg version="1.1" id="Layer_1" xmlns="http://www.w3.org/2000/svg" xmlns:xlink="http://www.w3.org/1999/xlink" x="0px" y="0px"
	 width="174.571px" height="48.546px" viewBox="0 0 174.571 48.546" enable-background="new 0 0 174.571 48.546"
	 xml:space="preserve">
<g>
	<g>
		<line fill="#F27321" x1="26.762" y1="27.085" x2="26.762" y2="8.783"/>
		<path fill-rule="evenodd" clip-rule="evenodd" fill="#F27321" d="M39.902,1.845c-3.293,0.008-5.959,2.678-5.965,5.973v0.016v5.242
			v13.892l0,0c0,7.256-5.902,13.16-13.158,13.16S7.621,34.222,7.621,26.966c0-7.257,5.902-13.159,13.158-13.159
			c1.455,0,2.855,0.239,4.164,0.678c0.967-1.534,1.813-4.031,1.816-5.691v6.456v0h0.002V8.784c-1.883-0.619-3.894-0.958-5.982-0.958
			c-10.57,0-19.142,8.569-19.142,19.141c0,10.571,8.571,19.141,19.142,19.141s19.141-8.57,19.141-19.141V13.807V1.845H39.902z"/>
		<rect x="26.76" y="8.784" fill="#F27321" width="0.002" height="6.467"/>
		<g>
			<path fill="#F27321" d="M32.725,1.845c-3.293,0.008-5.959,2.678-5.963,5.973v0.016v8.774H26.76v10.351v0.017
				c0,0.037-0.005,0.075-0.005,0.111c-0.064,3.243-2.718,5.862-5.976,5.862s-5.91-2.619-5.975-5.862
				c-0.001-0.04-0.007-0.08-0.007-0.119c0-1.138,0.357-2.991,1.674-4.546c2.04-2.379,5.688-4.723,7.695-6.929
				c-1.073-0.316-2.211-0.488-3.388-0.488c-6.607,0-11.964,5.357-11.964,11.964s5.356,11.962,11.964,11.962
				s11.963-5.356,11.963-11.962V13.807V1.845H32.725z"/>
		</g>
	</g>
	<path fill="#F27321" d="M65.337,2.658v8.723c0,4.266-2.981,6.591-6.646,6.591c-3.964,0-6.727-2.461-6.727-6.262
		c0-3.746,2.844-6.262,6.727-6.262c2.106,0,4.129,0.902,5.114,2.352C63.75,7.334,63.75,6.678,63.75,6.158v-3.5
		c0-0.547,0.273-0.929,0.793-0.929S65.337,2.111,65.337,2.658z M58.69,16.468c2.845,0,5.032-1.887,5.032-4.758
		c0-3.2-2.188-4.758-5.032-4.758c-2.843,0-5.058,1.695-5.058,4.758S55.848,16.468,58.69,16.468z"/>
	<path fill="#F27321" d="M72.882,5.448c3.884,0,6.728,2.516,6.728,6.262c0,3.747-2.844,6.262-6.728,6.262s-6.728-2.515-6.728-6.262
		C66.154,7.963,68.998,5.448,72.882,5.448z M72.882,6.951c-2.843,0-5.059,1.695-5.059,4.758s2.216,4.758,5.059,4.758
		c2.844,0,5.06-1.695,5.06-4.758S75.726,6.951,72.882,6.951z"/>
	<path fill="#F27321" d="M82.56,18.327c0.904,1.176,2.299,2.023,4.377,2.023c3.198,0,4.948-1.832,5.141-4.894
		c-1.039,1.476-2.98,2.405-5.114,2.405c-3.992,0-6.672-2.433-6.672-6.234c0-3.692,2.87-6.18,6.672-6.18c3.72,0,6.7,2.378,6.7,6.836
		v2.516c0,4.266-2.298,7.055-6.754,7.055c-1.915,0-3.611-0.52-4.95-1.777c-0.52-0.465-1.013-1.122-1.013-1.586
		c0-0.466,0.356-0.766,0.767-0.766C82.096,17.726,82.287,17.972,82.56,18.327z M87.018,16.413c2.845,0,4.977-1.833,4.977-4.758
		c0-2.708-2.297-4.704-5.031-4.704c-2.844,0-5.004,1.723-5.004,4.731C81.959,14.717,84.174,16.413,87.018,16.413z"/>
	<path fill="#F27321" d="M107.854,2.658v8.723c0,4.266-2.982,6.591-6.645,6.591c-3.966,0-6.728-2.461-6.728-6.262
		c0-3.746,2.844-6.262,6.728-6.262c2.105,0,4.129,0.902,5.113,2.352c-0.055-0.465-0.055-1.122-0.055-1.642v-3.5
		c0-0.547,0.273-0.929,0.793-0.929S107.854,2.111,107.854,2.658z M101.209,16.468c2.844,0,5.031-1.887,5.031-4.758
		c0-3.2-2.188-4.758-5.031-4.758s-5.06,1.695-5.06,4.758S98.365,16.468,101.209,16.468z"/>
	<path fill="#F27321" d="M122.044,11.928v4.949c0,0.548-0.274,0.93-0.793,0.93c-0.52,0-0.792-0.382-0.792-0.93v-0.218
		c0-0.328,0-0.738,0.054-1.094c-0.957,1.504-2.98,2.407-5.113,2.407c-3.884,0-6.728-2.515-6.728-6.262
		c0-3.746,2.844-6.262,6.728-6.262C119.063,5.448,122.044,7.69,122.044,11.928z M115.399,16.468c2.843,0,5.005-1.559,5.005-4.758
		c0-2.871-2.162-4.758-5.005-4.758c-2.845,0-5.06,1.695-5.06,4.758S112.555,16.468,115.399,16.468z"/>
	<path fill="#F27321" d="M124.722,6.542v4.648c0,3.227,1.778,5.114,4.868,5.114c3.035,0,4.866-1.86,4.866-5.251V6.542
		c0-0.547,0.274-0.93,0.794-0.93s0.793,0.382,0.793,0.93v8.286c0,4.32-2.516,7.027-6.207,7.027c-1.915,0-3.774-0.437-5.059-1.777
		c-0.52-0.548-1.014-1.122-1.014-1.586c0-0.438,0.356-0.793,0.739-0.793c0.41,0,0.63,0.273,0.876,0.602
		c1.012,1.368,2.268,2.051,4.511,2.051c2.488,0,4.458-1.941,4.566-4.977c-1.011,1.531-2.952,2.406-4.84,2.406
		c-4.101,0-6.481-2.762-6.481-6.508v-4.73c0-0.547,0.275-0.93,0.794-0.93C124.448,5.612,124.722,5.994,124.722,6.542z"/>
	<path fill="#F27321" d="M139.022,15.237c1.011,0.711,2.351,1.231,4.102,1.231c1.914,0,4.457-0.629,4.457-2.435
		c0-1.503-1.231-1.723-3.035-1.723c-0.655,0-1.504,0-2.188,0c-2.243,0-4.704-0.355-4.704-3.227c0-2.542,2.926-3.636,5.579-3.636
		c1.531,0,3.199,0.327,4.348,0.956c0.41,0.219,0.712,0.438,0.712,0.875c0,0.383-0.302,0.738-0.712,0.738
		c-0.354,0-0.766-0.247-1.202-0.437c-0.876-0.384-1.996-0.63-3.117-0.63c-1.832,0-3.938,0.63-3.938,2.132
		c0,1.396,1.175,1.724,2.706,1.724c0.794,0,2.023,0,2.816,0c2.544,0,4.402,0.848,4.402,3.226c0,2.543-2.734,3.938-6.071,3.938
		c-1.832,0-3.637-0.438-5.059-1.339c-0.383-0.247-0.874-0.603-0.874-1.095c0-0.438,0.272-0.765,0.711-0.765
		C138.311,14.772,138.667,14.99,139.022,15.237z"/>
	<path fill="#F27321" d="M54.098,31.506v4.649c0,3.226,1.776,5.113,4.867,5.113c3.035,0,4.867-1.86,4.867-5.25v-4.512
		c0-0.547,0.273-0.93,0.793-0.93s0.793,0.382,0.793,0.93v8.286c0,4.32-2.516,7.028-6.207,7.028c-1.914,0-3.774-0.437-5.059-1.777
		c-0.52-0.547-1.013-1.121-1.013-1.586c0-0.438,0.356-0.793,0.738-0.793c0.411,0,0.629,0.273,0.876,0.601
		c1.012,1.368,2.27,2.051,4.512,2.051c2.488,0,4.457-1.941,4.566-4.977c-1.013,1.531-2.953,2.406-4.84,2.406
		c-4.102,0-6.481-2.761-6.481-6.508v-4.73c0-0.547,0.273-0.93,0.794-0.93C53.824,30.577,54.098,30.959,54.098,31.506z"/>
	<path fill="#F27321" d="M73.101,30.413c3.883,0,6.728,2.516,6.728,6.262c0,3.747-2.845,6.262-6.728,6.262
		c-3.884,0-6.727-2.516-6.727-6.262C66.374,32.928,69.217,30.413,73.101,30.413z M73.101,31.916c-2.843,0-5.06,1.696-5.06,4.758
		c0,3.063,2.217,4.758,5.06,4.758c2.844,0,5.059-1.695,5.059-4.758C78.159,33.612,75.944,31.916,73.101,31.916z"/>
	<path fill="#F27321" d="M82.779,43.292c0.902,1.176,2.296,2.023,4.375,2.023c3.2,0,4.949-1.833,5.141-4.895
		c-1.039,1.476-2.98,2.407-5.112,2.407c-3.993,0-6.673-2.434-6.673-6.235c0-3.691,2.871-6.18,6.673-6.18
		c3.718,0,6.699,2.379,6.699,6.836v2.516c0,4.266-2.297,7.055-6.757,7.055c-1.912,0-3.607-0.52-4.947-1.777
		c-0.52-0.465-1.012-1.121-1.012-1.586c0-0.466,0.355-0.766,0.767-0.766C82.314,42.69,82.506,42.937,82.779,43.292z M87.237,41.378
		c2.843,0,4.976-1.833,4.976-4.759c0-2.707-2.297-4.703-5.03-4.703c-2.845,0-5.005,1.723-5.005,4.731
		C82.178,39.683,84.394,41.378,87.237,41.378z"/>
	<path fill="#F27321" d="M108.072,36.893v4.95c0,0.548-0.273,0.93-0.793,0.93s-0.793-0.382-0.793-0.93v-0.218
		c0-0.328,0-0.738,0.055-1.094c-0.957,1.504-2.98,2.406-5.113,2.406c-3.884,0-6.728-2.516-6.728-6.262
		c0-3.746,2.844-6.262,6.728-6.262C105.092,30.413,108.072,32.654,108.072,36.893z M101.428,41.432c2.844,0,5.003-1.559,5.003-4.758
		c0-2.871-2.159-4.758-5.003-4.758c-2.845,0-5.06,1.696-5.06,4.758C96.368,39.737,98.583,41.432,101.428,41.432z"/>
	<path fill="#F27321" d="M116.103,38.999c-0.163-0.684-0.219-1.668-0.219-2.762v-4.73c0-0.547,0.273-0.93,0.792-0.93
		c0.521,0,0.795,0.382,0.795,0.93v5.168c0,2.79,0.874,4.731,3.417,4.731c2.489,0,3.418-1.887,3.418-4.622v-5.278
		c0-0.547,0.274-0.93,0.794-0.93c0.521,0,0.792,0.382,0.792,0.93v5.278c0,2.735,0.903,4.622,3.419,4.622
		c2.544,0,3.419-1.942,3.419-4.731v-5.168c0-0.547,0.273-0.93,0.793-0.93s0.793,0.382,0.793,0.93v4.73
		c0,1.094-0.055,2.078-0.22,2.762c-0.602,2.488-2.324,3.938-4.785,3.938c-2.242,0-3.61-1.148-4.211-2.844
		c-0.602,1.695-1.969,2.844-4.212,2.844C118.427,42.937,116.703,41.487,116.103,38.999z"/>
	<path fill="#F27321" d="M147.493,34.296c0,2.488-1.942,3.281-4.759,3.281h-5.715c0.438,2.434,2.406,3.855,5.114,3.855
		c0.93,0,2.077-0.245,3.036-0.765c0.354-0.192,0.792-0.547,1.146-0.547c0.385,0,0.685,0.329,0.685,0.739
		c0,0.383-0.356,0.684-0.711,0.902c-1.313,0.821-2.927,1.176-4.239,1.176c-3.854,0-6.781-2.296-6.781-6.208
		c0-3.828,2.844-6.316,6.727-6.316C144.731,30.413,147.493,31.834,147.493,34.296z M142.734,36.128c1.669,0,3.117-0.165,3.117-1.832
		c0-1.668-1.995-2.38-3.855-2.38c-2.762,0-4.73,1.478-5.031,4.212H142.734z"/>
	<path fill="#F27321" d="M161.41,36.893v4.95c0,0.548-0.273,0.93-0.794,0.93c-0.519,0-0.792-0.382-0.792-0.93v-0.218
		c0-0.328,0-0.738,0.054-1.094c-0.956,1.504-2.979,2.406-5.112,2.406c-3.883,0-6.728-2.516-6.728-6.262
		c0-3.746,2.845-6.262,6.728-6.262C158.429,30.413,161.41,32.654,161.41,36.893z M154.766,41.432c2.844,0,5.004-1.559,5.004-4.758
		c0-2.871-2.16-4.758-5.004-4.758c-2.845,0-5.06,1.696-5.06,4.758C149.706,39.737,151.921,41.432,154.766,41.432z"/>
	<path fill="#F27321" d="M170.952,32.272c-0.438,0-0.903-0.329-1.97-0.329c-2.953,0-4.62,1.887-4.62,5.114v4.785
		c0,0.548-0.274,0.93-0.794,0.93s-0.794-0.382-0.794-0.93v-4.95c0-3.745,2.243-6.48,6.181-6.48c0.549,0,1.533,0.109,2.134,0.382
		c0.328,0.137,0.601,0.383,0.601,0.766C171.689,31.998,171.389,32.272,170.952,32.272z"/>
</g>
</svg>
