<?xml version="1.0" encoding="utf-8"?>
<!-- Generator: Adobe Illustrator 16.0.0, SVG Export Plug-In . SVG Version: 6.00 Build 0)  -->
<!DOCTYPE svg PUBLIC "-//W3C//DTD SVG 1.1//EN" "http://www.w3.org/Graphics/SVG/1.1/DTD/svg11.dtd">
<svg version="1.1" id="Layer_1" xmlns="http://www.w3.org/2000/svg" xmlns:xlink="http://www.w3.org/1999/xlink" x="0px" y="0px" viewBox="0 0 385.143 177.314" enable-background="new 0 0 385.143 177.314"
	 xml:space="preserve">
<g>
	<g>
		<line fill="#F27321" x1="205.497" y1="60.36" x2="205.497" y2="20.221"/>
		<path fill-rule="evenodd" clip-rule="evenodd" fill="#F27321" d="M234.325,5.002c-7.223,0.019-13.073,5.873-13.085,13.098v0.037
			v11.495v30.469l0,0c0,15.914-12.947,28.861-28.86,28.861c-15.917,0-28.863-12.947-28.863-28.861
			c0-15.915,12.946-28.861,28.863-28.861c3.19,0,6.262,0.524,9.134,1.487c2.117-3.363,3.976-8.842,3.983-12.481v14.16l0,0l0,0
			V20.223c-4.128-1.357-8.533-2.104-13.117-2.104c-23.186,0-41.983,18.794-41.983,41.981c0,23.187,18.798,41.978,41.983,41.978
			s41.979-18.791,41.979-41.978V31.239V5.002H234.325z"/>
		<rect x="205.496" y="20.222" fill="#F27321" width="0.002" height="14.183"/>
		<g>
			<path fill="#F27321" d="M218.579,5.002c-7.223,0.019-13.07,5.873-13.082,13.098v0.037V37.38l0,0v22.701v0.036
				c0,0.083-0.011,0.164-0.013,0.243c-0.141,7.113-5.96,12.859-13.104,12.859c-7.146,0-12.965-5.746-13.107-12.859
				c0-0.085-0.011-0.172-0.011-0.26c0-2.494,0.783-6.559,3.669-9.971c4.476-5.218,12.479-10.359,16.881-15.197
				c-2.355-0.695-4.851-1.071-7.432-1.071c-14.493,0-26.24,11.749-26.24,26.239c0,14.489,11.747,26.237,26.24,26.237
				c14.49,0,26.238-11.748,26.238-26.237V31.239V5.002H218.579z"/>
		</g>
	</g>
	<g>
		<path fill="#F27321" d="M26.6,141.124v14.173c0,6.931-5.078,10.707-11.317,10.707c-6.754,0-11.458-4-11.458-10.174
			c0-6.085,4.844-10.175,11.458-10.175c3.585,0,7.032,1.467,8.707,3.823c-0.094-0.758-0.094-1.824-0.094-2.667v-5.688
			c0-0.888,0.469-1.511,1.353-1.511C26.134,139.613,26.6,140.236,26.6,141.124z M15.282,163.561c4.844,0,8.567-3.065,8.567-7.73
			c0-5.198-3.724-7.73-8.567-7.73c-4.846,0-8.616,2.754-8.616,7.73C6.666,160.806,10.437,163.561,15.282,163.561z"/>
		<path fill="#F27321" d="M39.444,145.655c6.617,0,11.459,4.09,11.459,10.175s-4.842,10.174-11.459,10.174
			c-6.609,0-11.455-4.089-11.455-10.174S32.835,145.655,39.444,145.655z M39.444,148.1c-4.84,0-8.611,2.754-8.611,7.73
			c0,4.976,3.771,7.73,8.611,7.73c4.847,0,8.619-2.755,8.619-7.73C48.063,150.854,44.291,148.1,39.444,148.1z"/>
		<path fill="#F27321" d="M55.93,166.582c1.534,1.909,3.911,3.285,7.45,3.285c5.449,0,8.429-2.975,8.756-7.952
			c-1.77,2.4-5.078,3.912-8.71,3.912c-6.797,0-11.362-3.955-11.362-10.131c0-5.997,4.89-10.041,11.362-10.041
			c6.335,0,11.41,3.866,11.41,11.108v4.087c0,6.931-3.911,11.462-11.503,11.462c-3.26,0-6.146-0.845-8.428-2.889
			c-0.885-0.756-1.724-1.821-1.724-2.576s0.604-1.244,1.302-1.244C55.138,165.604,55.462,166.004,55.93,166.582z M63.519,163.472
			c4.845,0,8.478-2.977,8.478-7.731c0-4.398-3.911-7.641-8.57-7.641c-4.842,0-8.521,2.798-8.521,7.687
			C54.905,160.716,58.677,163.472,63.519,163.472z"/>
		<path fill="#F27321" d="M99.002,141.124v14.173c0,6.931-5.075,10.707-11.315,10.707c-6.753,0-11.458-4-11.458-10.174
			c0-6.085,4.843-10.175,11.458-10.175c3.584,0,7.031,1.467,8.707,3.823c-0.094-0.758-0.094-1.824-0.094-2.667v-5.688
			c0-0.888,0.467-1.511,1.354-1.511C98.538,139.613,99.002,140.236,99.002,141.124z M87.687,163.561c4.843,0,8.568-3.065,8.568-7.73
			c0-5.198-3.726-7.73-8.568-7.73c-4.845,0-8.615,2.754-8.615,7.73C79.071,160.806,82.842,163.561,87.687,163.561z"/>
		<path fill="#F27321" d="M123.167,156.185v8.043c0,0.888-0.466,1.511-1.349,1.511c-0.886,0-1.353-0.623-1.353-1.511v-0.356
			c0-0.532,0-1.198,0.094-1.777c-1.632,2.444-5.076,3.91-8.708,3.91c-6.614,0-11.457-4.089-11.457-10.174
			s4.843-10.175,11.457-10.175C118.093,145.655,123.167,149.299,123.167,156.185z M111.852,163.561c4.841,0,8.522-2.533,8.522-7.73
			c0-4.665-3.682-7.73-8.522-7.73c-4.845,0-8.616,2.754-8.616,7.73C103.235,160.806,107.007,163.561,111.852,163.561z"/>
		<path fill="#F27321" d="M127.728,147.433v7.554c0,5.241,3.025,8.308,8.291,8.308c5.169,0,8.289-3.021,8.289-8.529v-7.332
			c0-0.887,0.464-1.512,1.351-1.512c0.886,0,1.35,0.625,1.35,1.512v13.461c0,7.02-4.285,11.419-10.571,11.419
			c-3.26,0-6.426-0.712-8.614-2.889c-0.888-0.888-1.724-1.821-1.724-2.576c0-0.711,0.604-1.288,1.257-1.288
			c0.697,0,1.071,0.444,1.491,0.978c1.723,2.223,3.865,3.33,7.682,3.33c4.239,0,7.592-3.151,7.779-8.084
			c-1.723,2.487-5.03,3.908-8.24,3.908c-6.988,0-11.04-4.485-11.04-10.573v-7.686c0-0.887,0.465-1.512,1.351-1.512
			S127.728,146.546,127.728,147.433z"/>
		<path fill="#F27321" d="M152.079,161.562c1.724,1.154,4.006,1.999,6.986,1.999c3.261,0,7.59-1.021,7.59-3.955
			c0-2.444-2.096-2.798-5.168-2.798c-1.119,0-2.563,0-3.726,0c-3.819,0-8.011-0.577-8.011-5.243c0-4.132,4.982-5.909,9.501-5.909
			c2.606,0,5.449,0.532,7.403,1.557c0.7,0.355,1.212,0.709,1.212,1.421c0,0.622-0.512,1.199-1.212,1.199
			c-0.605,0-1.303-0.398-2.047-0.711c-1.492-0.62-3.402-1.021-5.313-1.021c-3.117,0-6.705,1.021-6.705,3.465
			c0,2.266,2.004,2.799,4.611,2.799c1.353,0,3.444,0,4.797,0c4.332,0,7.498,1.377,7.498,5.242c0,4.134-4.658,6.398-10.338,6.398
			c-3.122,0-6.193-0.711-8.617-2.178c-0.651-0.401-1.489-0.978-1.489-1.776c0-0.711,0.464-1.244,1.21-1.244
			C150.87,160.806,151.474,161.16,152.079,161.562z"/>
		<path fill="#F27321" d="M182.856,147.433v7.554c0,5.241,3.027,8.308,8.291,8.308c5.172,0,8.289-3.021,8.289-8.529v-7.332
			c0-0.887,0.466-1.512,1.353-1.512c0.884,0,1.348,0.625,1.348,1.512v13.461c0,7.02-4.283,11.419-10.569,11.419
			c-3.262,0-6.428-0.712-8.618-2.889c-0.884-0.888-1.723-1.821-1.723-2.576c0-0.711,0.605-1.288,1.258-1.288
			c0.697,0,1.071,0.444,1.491,0.978c1.721,2.223,3.866,3.33,7.684,3.33c4.238,0,7.592-3.151,7.777-8.084
			c-1.723,2.487-5.03,3.908-8.243,3.908c-6.985,0-11.038-4.485-11.038-10.573v-7.686c0-0.887,0.468-1.512,1.352-1.512
			C182.393,145.921,182.856,146.546,182.856,147.433z"/>
		<path fill="#F27321" d="M215.218,145.655c6.617,0,11.457,4.09,11.457,10.175s-4.84,10.174-11.457,10.174
			c-6.612,0-11.453-4.089-11.453-10.174S208.605,145.655,215.218,145.655z M215.218,148.1c-4.842,0-8.615,2.754-8.615,7.73
			c0,4.976,3.773,7.73,8.615,7.73c4.845,0,8.619-2.755,8.619-7.73C223.837,150.854,220.063,148.1,215.218,148.1z"/>
		<path fill="#F27321" d="M231.702,166.582c1.537,1.909,3.913,3.285,7.451,3.285c5.449,0,8.43-2.975,8.759-7.952
			c-1.771,2.4-5.078,3.912-8.714,3.912c-6.796,0-11.359-3.955-11.359-10.131c0-5.997,4.887-10.041,11.359-10.041
			c6.338,0,11.411,3.866,11.411,11.108v4.087c0,6.931-3.909,11.462-11.503,11.462c-3.261,0-6.146-0.845-8.43-2.889
			c-0.885-0.756-1.723-1.821-1.723-2.576s0.605-1.244,1.303-1.244C230.909,165.604,231.237,166.004,231.702,166.582z
			 M239.294,163.472c4.845,0,8.478-2.977,8.478-7.731c0-4.398-3.913-7.641-8.573-7.641c-4.842,0-8.521,2.798-8.521,7.687
			C230.677,160.716,234.45,163.472,239.294,163.472z"/>
		<path fill="#F27321" d="M274.773,156.185v8.043c0,0.888-0.463,1.511-1.349,1.511c-0.884,0-1.35-0.623-1.35-1.511v-0.356
			c0-0.532,0-1.198,0.096-1.777c-1.634,2.444-5.078,3.91-8.713,3.91c-6.611,0-11.456-4.089-11.456-10.174
			s4.845-10.175,11.456-10.175C269.699,145.655,274.773,149.299,274.773,156.185z M263.458,163.561c4.844,0,8.524-2.533,8.524-7.73
			c0-4.665-3.681-7.73-8.524-7.73c-4.843,0-8.614,2.754-8.614,7.73C254.844,160.806,258.615,163.561,263.458,163.561z"/>
		<path fill="#F27321" d="M286.271,159.605c-0.279-1.11-0.373-2.71-0.373-4.487v-7.686c0-0.887,0.467-1.512,1.353-1.512
			c0.883,0,1.351,0.625,1.351,1.512v8.397c0,4.53,1.489,7.686,5.822,7.686c4.237,0,5.82-3.065,5.82-7.508v-8.575
			c0-0.887,0.467-1.512,1.352-1.512c0.884,0,1.35,0.625,1.35,1.512v8.575c0,4.442,1.537,7.508,5.824,7.508
			c4.33,0,5.82-3.155,5.82-7.686v-8.397c0-0.887,0.464-1.512,1.35-1.512c0.884,0,1.351,0.625,1.351,1.512v7.686
			c0,1.777-0.094,3.377-0.375,4.487c-1.022,4.044-3.956,6.398-8.146,6.398c-3.821,0-6.149-1.867-7.174-4.621
			c-1.025,2.754-3.354,4.621-7.172,4.621C290.23,166.004,287.294,163.649,286.271,159.605z"/>
		<path fill="#F27321" d="M339.73,151.965c0,4.043-3.307,5.332-8.104,5.332h-9.737c0.748,3.954,4.103,6.264,8.714,6.264
			c1.581,0,3.534-0.401,5.169-1.244c0.603-0.313,1.349-0.888,1.953-0.888c0.654,0,1.164,0.532,1.164,1.198
			c0,0.623-0.604,1.112-1.211,1.467c-2.235,1.332-4.98,1.91-7.216,1.91c-6.565,0-11.55-3.73-11.55-10.086
			c0-6.219,4.844-10.263,11.455-10.263C335.027,145.655,339.73,147.967,339.73,151.965z M331.627,154.941
			c2.84,0,5.308-0.268,5.308-2.977c0-2.71-3.397-3.865-6.566-3.865c-4.705,0-8.057,2.397-8.57,6.842H331.627z"/>
		<path fill="#F27321" d="M363.43,156.185v8.043c0,0.888-0.466,1.511-1.352,1.511c-0.883,0-1.351-0.623-1.351-1.511v-0.356
			c0-0.532,0-1.198,0.094-1.777c-1.631,2.444-5.076,3.91-8.708,3.91c-6.614,0-11.456-4.089-11.456-10.174
			s4.842-10.175,11.456-10.175C358.353,145.655,363.43,149.299,363.43,156.185z M352.113,163.561c4.845,0,8.522-2.533,8.522-7.73
			c0-4.665-3.678-7.73-8.522-7.73s-8.619,2.754-8.619,7.73C343.494,160.806,347.269,163.561,352.113,163.561z"/>
		<path fill="#F27321" d="M379.681,148.675c-0.748,0-1.538-0.531-3.355-0.531c-5.029,0-7.869,3.066-7.869,8.309v7.775
			c0,0.888-0.467,1.511-1.353,1.511c-0.883,0-1.35-0.623-1.35-1.511v-8.043c0-6.085,3.819-10.529,10.524-10.529
			c0.932,0,2.607,0.179,3.635,0.621c0.559,0.225,1.024,0.623,1.024,1.246C380.938,148.232,380.423,148.675,379.681,148.675z"/>
	</g>
</g>
</svg>
