<svg viewBox="0 0 279 47" version="1.1" xmlns="http://www.w3.org/2000/svg" xmlns:xlink="http://www.w3.org/1999/xlink">
    <title>logo_1line</title>
    <g stroke="none" stroke-width="1" fill="#F27321" fill-rule="evenodd">
        <g id="dogdaysyogawear" transform="translate(53.000000, 0.000000)">
            <path d="M13.744,1.234 L13.744,10.133 C13.744,14.485 10.703,16.857 6.965,16.857 C2.92,16.857 0.104,14.345 0.104,10.468 C0.104,6.647 3.004,4.08 6.965,4.08 C9.113,4.08 11.178,5 12.182,6.48 C12.127,6.003 12.127,5.335 12.127,4.805 L12.127,1.234 C12.127,0.676 12.404,0.286 12.936,0.286 C13.468,0.286 13.744,0.676 13.744,1.234 M6.965,15.323 C9.865,15.323 12.098,13.398 12.098,10.468 C12.098,7.204 9.866,5.614 6.965,5.614 C4.064,5.614 1.803,7.344 1.803,10.468 C1.803,13.594 4.064,15.323 6.965,15.323"></path>
            <path d="M21.441,4.081 C25.402,4.081 28.304,6.647 28.304,10.469 C28.304,14.292 25.402,16.858 21.441,16.858 C17.48,16.858 14.578,14.292 14.578,10.469 C14.578,6.647 17.48,4.081 21.441,4.081 M21.441,5.614 C18.541,5.614 16.281,7.343 16.281,10.468 C16.281,13.593 18.541,15.323 21.441,15.323 C24.343,15.323 26.603,13.593 26.603,10.468 C26.604,7.344 24.344,5.614 21.441,5.614"></path>
            <path d="M31.314,17.22 C32.236,18.42 33.658,19.284 35.779,19.284 C39.043,19.284 40.83,17.416 41.023,14.291 C39.962,15.797 37.982,16.746 35.806,16.746 C31.734,16.746 28.999,14.263 28.999,10.386 C28.999,6.619 31.927,4.081 35.806,4.081 C39.601,4.081 42.642,6.508 42.642,11.055 L42.642,13.622 C42.642,17.973 40.296,20.819 35.749,20.819 C33.798,20.819 32.067,20.288 30.7,19.006 C30.171,18.531 29.669,17.861 29.669,17.388 C29.669,16.913 30.03,16.607 30.45,16.607 C30.84,16.607 31.035,16.857 31.314,17.22 M35.861,15.267 C38.763,15.267 40.941,13.398 40.941,10.413 C40.941,7.651 38.595,5.615 35.806,5.615 C32.904,5.615 30.701,7.372 30.701,10.441 C30.701,13.538 32.961,15.267 35.861,15.267"></path>
            <path d="M57.117,1.234 L57.117,10.133 C57.117,14.485 54.076,16.857 50.338,16.857 C46.293,16.857 43.477,14.345 43.477,10.468 C43.477,6.647 46.377,4.08 50.338,4.08 C52.486,4.08 54.551,5 55.555,6.48 C55.498,6.003 55.498,5.335 55.498,4.805 L55.498,1.234 C55.498,0.676 55.777,0.286 56.309,0.286 C56.841,0.286 57.117,0.676 57.117,1.234 M50.338,15.323 C53.238,15.323 55.471,13.398 55.471,10.468 C55.471,7.204 53.239,5.614 50.338,5.614 C47.437,5.614 45.176,7.344 45.176,10.468 C45.176,13.594 47.438,15.323 50.338,15.323"></path>
            <path d="M71.594,10.691 L71.594,15.741 C71.594,16.299 71.317,16.689 70.785,16.689 C70.253,16.689 69.974,16.298 69.974,15.741 L69.974,15.518 C69.974,15.184 69.974,14.765 70.031,14.402 C69.054,15.936 66.99,16.857 64.814,16.857 C60.853,16.857 57.951,14.29 57.951,10.468 C57.951,6.647 60.853,4.08 64.814,4.08 C68.553,4.081 71.594,6.368 71.594,10.691 M64.814,15.323 C67.714,15.323 69.919,13.733 69.919,10.468 C69.919,7.539 67.714,5.614 64.814,5.614 C61.912,5.614 59.654,7.344 59.654,10.468 C59.654,13.594 61.912,15.323 64.814,15.323"></path>
            <path d="M74.326,5.196 L74.326,9.939 C74.326,13.23 76.139,15.156 79.293,15.156 C82.389,15.156 84.258,13.259 84.258,9.799 L84.258,5.196 C84.258,4.638 84.537,4.248 85.067,4.248 C85.597,4.248 85.876,4.638 85.876,5.196 L85.876,13.65 C85.876,18.058 83.31,20.819 79.544,20.819 C77.591,20.819 75.694,20.372 74.382,19.006 C73.853,18.448 73.351,17.861 73.351,17.387 C73.351,16.941 73.714,16.578 74.103,16.578 C74.521,16.578 74.746,16.857 74.996,17.192 C76.029,18.588 77.312,19.285 79.6,19.285 C82.139,19.285 84.147,17.304 84.26,14.207 C83.229,15.769 81.246,16.662 79.321,16.662 C75.137,16.662 72.71,13.845 72.71,10.023 L72.71,5.196 C72.71,4.638 72.989,4.248 73.519,4.248 C74.047,4.248 74.326,4.638 74.326,5.196"></path>
            <path d="M88.912,14.067 C89.945,14.792 91.312,15.323 93.098,15.323 C95.051,15.323 97.645,14.681 97.645,12.84 C97.645,11.305 96.391,11.082 94.547,11.082 L92.317,11.082 C90.03,11.082 87.518,10.72 87.518,7.79 C87.518,5.195 90.502,4.08 93.209,4.08 C94.773,4.08 96.475,4.414 97.645,5.057 C98.063,5.28 98.372,5.502 98.372,5.949 C98.372,6.34 98.063,6.702 97.645,6.702 C97.284,6.702 96.864,6.451 96.418,6.256 C95.525,5.866 94.381,5.614 93.238,5.614 C91.369,5.614 89.218,6.256 89.218,7.79 C89.218,9.213 90.419,9.548 91.982,9.548 L94.855,9.548 C97.449,9.548 99.347,10.413 99.347,12.84 C99.347,15.435 96.556,16.857 93.154,16.857 C91.285,16.857 89.443,16.411 87.992,15.491 C87.601,15.239 87.099,14.877 87.099,14.374 C87.099,13.927 87.376,13.593 87.824,13.593 C88.188,13.593 88.551,13.816 88.912,14.067"></path>
            <path d="M107.352,5.196 L107.352,9.939 C107.352,13.23 109.165,15.156 112.317,15.156 C115.415,15.156 117.282,13.259 117.282,9.799 L117.282,5.196 C117.282,4.638 117.561,4.248 118.093,4.248 C118.622,4.248 118.9,4.638 118.9,5.196 L118.9,13.65 C118.9,18.058 116.334,20.819 112.568,20.819 C110.617,20.819 108.718,20.372 107.408,19.006 C106.877,18.448 106.375,17.861 106.375,17.387 C106.375,16.941 106.738,16.578 107.129,16.578 C107.547,16.578 107.772,16.857 108.022,17.192 C109.055,18.588 110.338,19.285 112.626,19.285 C115.165,19.285 117.173,17.304 117.284,14.207 C116.253,15.769 114.272,16.662 112.346,16.662 C108.16,16.662 105.733,13.845 105.733,10.023 L105.733,5.196 C105.733,4.638 106.012,4.248 106.544,4.248 C107.076,4.248 107.352,4.638 107.352,5.196"></path>
            <path d="M126.736,4.081 C130.697,4.081 133.599,6.647 133.599,10.469 C133.599,14.292 130.697,16.858 126.736,16.858 C122.773,16.858 119.873,14.292 119.873,10.469 C119.873,6.647 122.773,4.081 126.736,4.081 M126.736,5.614 C123.834,5.614 121.576,7.343 121.576,10.468 C121.576,13.593 123.834,15.323 126.736,15.323 C129.638,15.323 131.896,13.593 131.896,10.468 C131.896,7.344 129.639,5.614 126.736,5.614"></path>
            <path d="M136.609,17.22 C137.529,18.42 138.953,19.284 141.072,19.284 C144.338,19.284 146.123,17.416 146.318,14.291 C145.257,15.797 143.277,16.746 141.101,16.746 C137.029,16.746 134.294,14.263 134.294,10.386 C134.294,6.619 137.222,4.081 141.101,4.081 C144.896,4.081 147.935,6.508 147.935,11.055 L147.935,13.622 C147.935,17.973 145.591,20.819 141.044,20.819 C139.093,20.819 137.362,20.288 135.995,19.006 C135.466,18.531 134.962,17.861 134.962,17.388 C134.962,16.913 135.325,16.607 135.745,16.607 C136.135,16.607 136.33,16.857 136.609,17.22 M141.156,15.267 C144.058,15.267 146.234,13.398 146.234,10.413 C146.234,7.651 143.89,5.615 141.101,5.615 C138.199,5.615 135.996,7.372 135.996,10.441 C135.996,13.538 138.256,15.267 141.156,15.267"></path>
            <path d="M162.412,10.691 L162.412,15.741 C162.412,16.299 162.135,16.689 161.603,16.689 C161.071,16.689 160.794,16.298 160.794,15.741 L160.794,15.518 C160.794,15.184 160.794,14.765 160.849,14.402 C159.872,15.936 157.808,16.857 155.632,16.857 C151.671,16.857 148.769,14.29 148.769,10.468 C148.769,6.647 151.671,4.08 155.632,4.08 C159.371,4.081 162.412,6.368 162.412,10.691 M155.633,15.323 C158.535,15.323 160.738,13.733 160.738,10.468 C160.738,7.539 158.535,5.614 155.633,5.614 C152.733,5.614 150.473,7.344 150.473,10.468 C150.473,13.594 152.732,15.323 155.633,15.323"></path>
            <path d="M169.299,12.839 C169.133,12.143 169.076,11.137 169.076,10.022 L169.076,5.196 C169.076,4.639 169.355,4.248 169.885,4.248 C170.416,4.248 170.694,4.639 170.694,5.196 L170.694,10.468 C170.694,13.314 171.589,15.295 174.182,15.295 C176.721,15.295 177.67,13.37 177.67,10.58 L177.67,5.196 C177.67,4.639 177.947,4.248 178.479,4.248 C179.008,4.248 179.288,4.639 179.288,5.196 L179.288,10.58 C179.288,13.37 180.208,15.295 182.774,15.295 C185.37,15.295 186.262,13.315 186.262,10.468 L186.262,5.196 C186.262,4.639 186.541,4.248 187.071,4.248 C187.602,4.248 187.882,4.639 187.882,5.196 L187.882,10.023 C187.882,11.138 187.825,12.144 187.657,12.84 C187.044,15.38 185.286,16.858 182.774,16.858 C180.487,16.858 179.092,15.687 178.479,13.957 C177.864,15.687 176.469,16.858 174.182,16.858 C171.67,16.857 169.912,15.379 169.299,12.839"></path>
            <path d="M201.322,8.042 C201.322,10.581 199.34,11.39 196.468,11.39 L190.636,11.39 C191.083,13.872 193.091,15.324 195.855,15.324 C196.802,15.324 197.974,15.072 198.951,14.542 C199.312,14.346 199.76,13.983 200.123,13.983 C200.514,13.983 200.82,14.318 200.82,14.737 C200.82,15.127 200.457,15.435 200.093,15.658 C198.755,16.494 197.109,16.857 195.769,16.857 C191.835,16.857 188.851,14.514 188.851,10.524 C188.851,6.618 191.753,4.08 195.714,4.08 C198.504,4.081 201.322,5.531 201.322,8.042 L201.322,8.042 Z M196.469,9.911 C198.17,9.911 199.649,9.744 199.649,8.042 C199.649,6.34 197.614,5.615 195.715,5.615 C192.897,5.615 190.889,7.121 190.582,9.911 L196.469,9.911 L196.469,9.911 Z"></path>
            <path d="M215.52,10.691 L215.52,15.741 C215.52,16.299 215.241,16.689 214.709,16.689 C214.182,16.689 213.902,16.298 213.902,15.741 L213.902,15.518 C213.902,15.184 213.902,14.765 213.957,14.402 C212.98,15.936 210.916,16.857 208.74,16.857 C204.779,16.857 201.877,14.29 201.877,10.468 C201.877,6.647 204.779,4.08 208.74,4.08 C212.479,4.081 215.52,6.368 215.52,10.691 M208.74,15.323 C211.642,15.323 213.845,13.733 213.845,10.468 C213.845,7.539 211.642,5.614 208.74,5.614 C205.838,5.614 203.58,7.344 203.58,10.468 C203.58,13.594 205.838,15.323 208.74,15.323"></path>
            <path d="M225.254,5.977 C224.807,5.977 224.332,5.643 223.244,5.643 C220.23,5.643 218.529,7.568 218.529,10.861 L218.529,15.743 C218.529,16.301 218.25,16.691 217.718,16.691 C217.191,16.691 216.909,16.301 216.909,15.743 L216.909,10.693 C216.909,6.871 219.198,4.082 223.216,4.082 C223.773,4.082 224.779,4.193 225.392,4.472 C225.726,4.612 226.005,4.863 226.005,5.254 C226.006,5.698 225.699,5.977 225.254,5.977"></path>
        </g>
        <g id="logo">
            <path d="M39.742,0.289 C36.322,0.299 33.551,3.071 33.547,6.494 L33.547,6.51 L33.547,11.953 L33.547,26.382 C33.547,33.918 27.416,40.049 19.881,40.049 C12.344,40.049 6.213,33.917 6.213,26.381 C6.213,18.845 12.344,12.714 19.881,12.714 C21.393,12.714 22.846,12.962 24.205,13.419 C25.209,11.826 26.088,9.232 26.092,7.508 L26.092,14.214 L26.092,14.214 L26.092,7.497 C24.139,6.854 22.051,6.501 19.881,6.501 C8.902,6.501 0,15.402 0,26.38 C0,37.36 8.902,46.259 19.881,46.259 C30.86,46.259 39.758,37.36 39.758,26.381 L39.758,12.713 L39.758,0.289 L39.742,0.289 Z"></path>
            <path d="M32.287,0.289 C28.867,0.299 26.098,3.071 26.092,6.494 L26.092,6.51 L26.092,15.622 L26.092,26.372 L26.092,26.39 C26.092,26.429 26.088,26.467 26.086,26.506 C26.02,29.873 23.264,32.594 19.881,32.594 C16.496,32.594 13.742,29.873 13.676,26.506 C13.674,26.464 13.668,26.423 13.668,26.381 C13.668,25.201 14.039,23.276 15.406,21.66 C17.525,19.189 21.314,16.755 23.4,14.464 C22.283,14.134 21.101,13.957 19.88,13.957 C13.017,13.957 7.454,19.521 7.454,26.382 C7.454,33.243 13.017,38.806 19.88,38.806 C26.741,38.806 32.304,33.243 32.304,26.382 L32.304,12.713 L32.304,0.289 L32.287,0.289 Z"></path>
        </g>
    </g>
</svg>