<svg viewBox="0 0 378 168" version="1.1" xmlns="http://www.w3.org/2000/svg" xmlns:xlink="http://www.w3.org/1999/xlink">
    <title>logo_footer</title>
    <g stroke="none" stroke-width="1" fill="#ff5300" fill-rule="evenodd">
        <g id="logo" transform="translate(147.000000, 0.000000)">
            <path d="M84.325,0.002 C77.102,0.021 71.252,5.875 71.24,13.1 L71.24,13.137 L71.24,24.632 L71.24,55.101 L71.24,55.101 C71.24,71.015 58.293,83.962 42.38,83.962 C26.463,83.962 13.517,71.015 13.517,55.101 C13.517,39.186 26.463,26.24 42.38,26.24 C45.57,26.24 48.642,26.764 51.514,27.727 C53.631,24.364 55.49,18.885 55.497,15.246 L55.497,29.406 L55.497,29.406 L55.497,29.406 L55.497,15.223 C51.369,13.866 46.964,13.119 42.38,13.119 C19.194,13.119 0.397,31.913 0.397,55.1 C0.397,78.287 19.195,97.078 42.38,97.078 C65.565,97.078 84.359,78.287 84.359,55.1 L84.359,26.239 L84.359,0.002 L84.325,0.002 Z"></path>
            <path d="M68.579,0.002 C61.356,0.021 55.509,5.875 55.497,13.1 L55.497,13.137 L55.497,32.38 L55.497,32.38 L55.497,55.081 L55.497,55.117 C55.497,55.2 55.486,55.281 55.484,55.36 C55.343,62.473 49.524,68.219 42.38,68.219 C35.234,68.219 29.415,62.473 29.273,55.36 C29.273,55.275 29.262,55.188 29.262,55.1 C29.262,52.606 30.045,48.541 32.931,45.129 C37.407,39.911 45.41,34.77 49.812,29.932 C47.457,29.237 44.961,28.861 42.38,28.861 C27.887,28.861 16.14,40.61 16.14,55.1 C16.14,69.589 27.887,81.337 42.38,81.337 C56.87,81.337 68.618,69.589 68.618,55.1 L68.618,26.239 L68.618,0.002 L68.579,0.002 Z"></path>
        </g>
        <g id="dogdaysyogawear" transform="translate(0.000000, 134.000000)">
            <path d="M23.6,2.124 L23.6,16.297 C23.6,23.228 18.522,27.004 12.283,27.004 C5.529,27.004 0.825,23.004 0.825,16.83 C0.825,10.745 5.669,6.655 12.283,6.655 C15.868,6.655 19.315,8.122 20.99,10.478 C20.896,9.72 20.896,8.654 20.896,7.811 L20.896,2.123 C20.896,1.235 21.365,0.612 22.249,0.612 C23.134,0.613 23.6,1.236 23.6,2.124 Z M12.282,24.561 C17.126,24.561 20.849,21.496 20.849,16.831 C20.849,11.633 17.125,9.101 12.282,9.101 C7.436,9.101 3.666,11.855 3.666,16.831 C3.666,21.806 7.437,24.561 12.282,24.561 Z"></path>
            <path d="M36.444,6.655 C43.061,6.655 47.903,10.745 47.903,16.83 C47.903,22.915 43.061,27.004 36.444,27.004 C29.835,27.004 24.989,22.915 24.989,16.83 C24.989,10.745 29.835,6.655 36.444,6.655 Z M36.444,9.1 C31.604,9.1 27.833,11.854 27.833,16.83 C27.833,21.806 31.604,24.56 36.444,24.56 C41.291,24.56 45.063,21.805 45.063,16.83 C45.063,11.854 41.291,9.1 36.444,9.1 Z"></path>
            <path d="M52.93,27.582 C54.464,29.491 56.841,30.867 60.38,30.867 C65.829,30.867 68.809,27.892 69.136,22.915 C67.366,25.315 64.058,26.827 60.426,26.827 C53.629,26.827 49.064,22.872 49.064,16.696 C49.064,10.699 53.954,6.655 60.426,6.655 C66.761,6.655 71.836,10.521 71.836,17.763 L71.836,21.85 C71.836,28.781 67.925,33.312 60.333,33.312 C57.073,33.312 54.187,32.467 51.905,30.423 C51.02,29.667 50.181,28.602 50.181,27.847 C50.181,27.092 50.785,26.603 51.483,26.603 C52.138,26.604 52.462,27.004 52.93,27.582 Z M60.519,24.472 C65.364,24.472 68.997,21.495 68.997,16.741 C68.997,12.343 65.086,9.1 60.427,9.1 C55.585,9.1 51.906,11.898 51.906,16.787 C51.905,21.716 55.677,24.472 60.519,24.472 Z"></path>
            <path d="M96.002,2.124 L96.002,16.297 C96.002,23.228 90.927,27.004 84.687,27.004 C77.934,27.004 73.229,23.004 73.229,16.83 C73.229,10.745 78.072,6.655 84.687,6.655 C88.271,6.655 91.718,8.122 93.394,10.478 C93.3,9.72 93.3,8.654 93.3,7.811 L93.3,2.123 C93.3,1.235 93.767,0.612 94.654,0.612 C95.538,0.613 96.002,1.236 96.002,2.124 Z M84.687,24.561 C89.53,24.561 93.255,21.496 93.255,16.831 C93.255,11.633 89.529,9.101 84.687,9.101 C79.842,9.101 76.072,11.855 76.072,16.831 C76.071,21.806 79.842,24.561 84.687,24.561 Z"></path>
            <path d="M120.167,17.185 L120.167,25.228 C120.167,26.116 119.701,26.739 118.818,26.739 C117.932,26.739 117.465,26.116 117.465,25.228 L117.465,24.872 C117.465,24.34 117.465,23.674 117.559,23.095 C115.927,25.539 112.483,27.005 108.851,27.005 C102.237,27.005 97.394,22.916 97.394,16.831 C97.394,10.746 102.237,6.656 108.851,6.656 C115.093,6.655 120.167,10.299 120.167,17.185 Z M108.852,24.561 C113.693,24.561 117.374,22.028 117.374,16.831 C117.374,12.166 113.692,9.101 108.852,9.101 C104.007,9.101 100.236,11.855 100.236,16.831 C100.235,21.806 104.007,24.561 108.852,24.561 Z"></path>
            <path d="M124.728,8.433 L124.728,15.987 C124.728,21.228 127.753,24.295 133.019,24.295 C138.188,24.295 141.308,21.274 141.308,15.766 L141.308,8.434 C141.308,7.547 141.772,6.922 142.659,6.922 C143.545,6.922 144.009,7.547 144.009,8.434 L144.009,21.895 C144.009,28.915 139.724,33.314 133.438,33.314 C130.178,33.314 127.012,32.602 124.824,30.425 C123.936,29.537 123.1,28.604 123.1,27.849 C123.1,27.138 123.704,26.561 124.357,26.561 C125.054,26.561 125.428,27.005 125.848,27.539 C127.571,29.762 129.713,30.869 133.53,30.869 C137.769,30.869 141.122,27.718 141.309,22.785 C139.586,25.272 136.279,26.693 133.069,26.693 C126.081,26.693 122.029,22.208 122.029,16.12 L122.029,8.434 C122.029,7.547 122.494,6.922 123.38,6.922 C124.266,6.922 124.728,7.546 124.728,8.433 Z"></path>
            <path d="M149.079,22.562 C150.803,23.716 153.085,24.561 156.065,24.561 C159.326,24.561 163.655,23.54 163.655,20.606 C163.655,18.162 161.559,17.808 158.487,17.808 L154.761,17.808 C150.942,17.808 146.75,17.231 146.75,12.565 C146.75,8.433 151.732,6.656 156.251,6.656 C158.857,6.656 161.7,7.188 163.654,8.213 C164.354,8.568 164.866,8.922 164.866,9.634 C164.866,10.256 164.354,10.833 163.654,10.833 C163.049,10.833 162.351,10.435 161.607,10.122 C160.115,9.502 158.205,9.101 156.294,9.101 C153.177,9.101 149.589,10.122 149.589,12.566 C149.589,14.832 151.593,15.365 154.2,15.365 L158.997,15.365 C163.329,15.365 166.495,16.742 166.495,20.607 C166.495,24.741 161.837,27.005 156.157,27.005 C153.035,27.005 149.964,26.294 147.54,24.827 C146.889,24.426 146.051,23.849 146.051,23.051 C146.051,22.34 146.515,21.807 147.261,21.807 C147.87,21.806 148.474,22.16 149.079,22.562 Z"></path>
            <path d="M179.856,8.433 L179.856,15.987 C179.856,21.228 182.883,24.295 188.147,24.295 C193.319,24.295 196.436,21.274 196.436,15.766 L196.436,8.434 C196.436,7.547 196.902,6.922 197.789,6.922 C198.673,6.922 199.137,7.547 199.137,8.434 L199.137,21.895 C199.137,28.915 194.854,33.314 188.568,33.314 C185.306,33.314 182.14,32.602 179.95,30.425 C179.066,29.537 178.227,28.604 178.227,27.849 C178.227,27.138 178.832,26.561 179.485,26.561 C180.182,26.561 180.556,27.005 180.976,27.539 C182.697,29.762 184.842,30.869 188.66,30.869 C192.898,30.869 196.252,27.718 196.437,22.785 C194.714,25.272 191.407,26.693 188.194,26.693 C181.209,26.693 177.156,22.208 177.156,16.12 L177.156,8.434 C177.156,7.547 177.624,6.922 178.508,6.922 C179.393,6.921 179.856,7.546 179.856,8.433 Z"></path>
            <path d="M212.218,6.655 C218.835,6.655 223.675,10.745 223.675,16.83 C223.675,22.915 218.835,27.004 212.218,27.004 C205.606,27.004 200.765,22.915 200.765,16.83 C200.765,10.745 205.605,6.655 212.218,6.655 Z M212.218,9.1 C207.376,9.1 203.603,11.854 203.603,16.83 C203.603,21.806 207.376,24.56 212.218,24.56 C217.063,24.56 220.837,21.805 220.837,16.83 C220.837,11.854 217.063,9.1 212.218,9.1 Z"></path>
            <path d="M228.702,27.582 C230.239,29.491 232.615,30.867 236.153,30.867 C241.602,30.867 244.583,27.892 244.912,22.915 C243.141,25.315 239.834,26.827 236.198,26.827 C229.402,26.827 224.839,22.872 224.839,16.696 C224.839,10.699 229.726,6.655 236.198,6.655 C242.536,6.655 247.609,10.521 247.609,17.763 L247.609,21.85 C247.609,28.781 243.7,33.312 236.106,33.312 C232.845,33.312 229.96,32.467 227.676,30.423 C226.791,29.667 225.953,28.602 225.953,27.847 C225.953,27.092 226.558,26.603 227.256,26.603 C227.909,26.604 228.237,27.004 228.702,27.582 Z M236.294,24.472 C241.139,24.472 244.772,21.495 244.772,16.741 C244.772,12.343 240.859,9.1 236.199,9.1 C231.357,9.1 227.678,11.898 227.678,16.787 C227.677,21.716 231.45,24.472 236.294,24.472 Z"></path>
            <path d="M271.773,17.185 L271.773,25.228 C271.773,26.116 271.31,26.739 270.424,26.739 C269.54,26.739 269.074,26.116 269.074,25.228 L269.074,24.872 C269.074,24.34 269.074,23.674 269.17,23.095 C267.536,25.539 264.092,27.005 260.457,27.005 C253.846,27.005 249.001,22.916 249.001,16.831 C249.001,10.746 253.846,6.656 260.457,6.656 C266.699,6.655 271.773,10.299 271.773,17.185 Z M260.458,24.561 C265.302,24.561 268.982,22.028 268.982,16.831 C268.982,12.166 265.301,9.101 260.458,9.101 C255.615,9.101 251.844,11.855 251.844,16.831 C251.844,21.806 255.615,24.561 260.458,24.561 Z"></path>
            <path d="M283.271,20.605 C282.992,19.495 282.898,17.895 282.898,16.118 L282.898,8.432 C282.898,7.545 283.365,6.92 284.251,6.92 C285.134,6.92 285.602,7.545 285.602,8.432 L285.602,16.829 C285.602,21.359 287.091,24.515 291.424,24.515 C295.661,24.515 297.244,21.45 297.244,17.007 L297.244,8.432 C297.244,7.545 297.711,6.92 298.596,6.92 C299.48,6.92 299.946,7.545 299.946,8.432 L299.946,17.007 C299.946,21.449 301.483,24.515 305.77,24.515 C310.1,24.515 311.59,21.36 311.59,16.829 L311.59,8.432 C311.59,7.545 312.054,6.92 312.94,6.92 C313.824,6.92 314.291,7.545 314.291,8.432 L314.291,16.118 C314.291,17.895 314.197,19.495 313.916,20.605 C312.894,24.649 309.96,27.003 305.77,27.003 C301.949,27.003 299.621,25.136 298.596,22.382 C297.571,25.136 295.242,27.003 291.424,27.003 C287.23,27.004 284.294,24.649 283.271,20.605 Z"></path>
            <path d="M336.73,12.965 C336.73,17.008 333.423,18.297 328.626,18.297 L318.889,18.297 C319.637,22.251 322.992,24.561 327.603,24.561 C329.184,24.561 331.137,24.16 332.772,23.317 C333.375,23.004 334.121,22.429 334.725,22.429 C335.379,22.429 335.889,22.961 335.889,23.627 C335.889,24.25 335.285,24.739 334.678,25.094 C332.443,26.426 329.698,27.004 327.462,27.004 C320.897,27.004 315.912,23.274 315.912,16.918 C315.912,10.699 320.756,6.655 327.367,6.655 C332.027,6.655 336.73,8.967 336.73,12.965 Z M328.627,15.941 C331.467,15.941 333.935,15.673 333.935,12.964 C333.935,10.254 330.538,9.099 327.369,9.099 C322.664,9.099 319.312,11.496 318.799,15.941 L328.627,15.941 Z"></path>
            <path d="M360.43,17.185 L360.43,25.228 C360.43,26.116 359.964,26.739 359.078,26.739 C358.195,26.739 357.727,26.116 357.727,25.228 L357.727,24.872 C357.727,24.34 357.727,23.674 357.821,23.095 C356.19,25.539 352.745,27.005 349.113,27.005 C342.499,27.005 337.657,22.916 337.657,16.831 C337.657,10.746 342.499,6.656 349.113,6.656 C355.353,6.655 360.43,10.299 360.43,17.185 Z M349.113,24.561 C353.958,24.561 357.635,22.028 357.635,16.831 C357.635,12.166 353.957,9.101 349.113,9.101 C344.269,9.101 340.494,11.855 340.494,16.831 C340.494,21.806 344.269,24.561 349.113,24.561 Z"></path>
            <path d="M376.681,9.675 C375.933,9.675 375.143,9.144 373.326,9.144 C368.297,9.144 365.457,12.21 365.457,17.453 L365.457,25.228 C365.457,26.116 364.99,26.739 364.104,26.739 C363.221,26.739 362.754,26.116 362.754,25.228 L362.754,17.185 C362.754,11.1 366.573,6.656 373.278,6.656 C374.21,6.656 375.885,6.835 376.913,7.277 C377.472,7.502 377.937,7.9 377.937,8.523 C377.938,9.232 377.423,9.675 376.681,9.675 Z"></path>
        </g>
    </g>
</svg>