<?xml version="1.0" encoding="utf-8"?>
<!-- Generator: Adobe Illustrator 16.0.0, SVG Export Plug-In . SVG Version: 6.00 Build 0)  -->
<!DOCTYPE svg PUBLIC "-//W3C//DTD SVG 1.1//EN" "http://www.w3.org/Graphics/SVG/1.1/DTD/svg11.dtd">
<svg version="1.1" id="Layer_1" xmlns="http://www.w3.org/2000/svg" xmlns:xlink="http://www.w3.org/1999/xlink" x="0px" y="0px"
	 viewBox="0 0 448.921 146.572" enable-background="new 0 0 448.921 146.572"
	 xml:space="preserve">
<g opacity="0.8">
	<g>
		<path fill="#FFFFFF" d="M11.428,61.527c1.521-0.314,2.938-0.673,4.258-1.075c0.688-0.229,1.548-0.615,2.579-1.161
			c1.032-0.544,2.15-1.174,3.354-1.892c1.204-0.716,2.451-1.49,3.741-2.322c1.29-0.831,2.537-1.647,3.741-2.451
			c-0.632,1.434-1.105,2.767-1.42,3.999c-0.315,1.234-0.301,2.266,0.043,3.096c0.345,0.832,1.104,1.449,2.279,1.849
			c1.175,0.401,2.938,0.516,5.289,0.344c1.948-0.172,4.085-0.615,6.407-1.333c2.322-0.716,4.629-1.548,6.923-2.494
			c2.293-0.946,4.528-1.963,6.708-3.053c2.179-1.088,4.142-2.107,5.891-3.053c0.295-0.159,0.568-0.311,0.847-0.464
			c-0.081,0.212-0.177,0.421-0.244,0.636c-0.545,1.75-0.631,3.383-0.259,4.902c0.374,1.52,1.219,2.782,2.537,3.784
			c1.32,1.003,3.097,1.505,5.332,1.505c3.727,0,7.01-0.702,9.848-2.107c2.838-1.404,5.087-3.023,6.751-4.859
			c2.35,0,4.715-0.286,7.095-0.86c2.378-0.572,4.629-1.232,6.751-1.978c2.12-0.744,4.013-1.49,5.676-2.236
			c0.083-0.037,0.155-0.069,0.236-0.105c-0.228,0.433-0.455,0.865-0.667,1.309c-0.572,1.204-1.06,2.352-1.462,3.44
			c-0.4,1.09-0.688,1.921-0.859,2.494c-0.172,0.516-0.014,1.004,0.473,1.462c0.487,0.459,1.075,0.817,1.763,1.075
			c0.688,0.258,1.391,0.359,2.107,0.301c0.718-0.057,1.247-0.373,1.591-0.946c0.572-0.974,1.647-2.12,3.225-3.44
			c1.577-1.318,3.269-2.58,5.074-3.784c1.807-1.204,3.512-2.279,5.117-3.225c1.604-0.946,2.723-1.505,3.354-1.677
			c-0.688,1.147-1.349,2.266-1.979,3.354c-0.573,0.976-1.133,2.036-1.677,3.182c-0.546,1.147-0.989,2.236-1.333,3.268
			c-0.688,2.18-0.66,3.741,0.086,4.687c0.744,0.946,2.494,1.19,5.246,0.731c1.318-0.229,3.053-0.702,5.203-1.419
			c2.149-0.716,4.442-1.548,6.88-2.494c0.289-0.112,0.587-0.231,0.878-0.345c-0.002-0.012-0.004-0.023-0.007-0.035
			c1.141-0.483,2.253-0.963,3.304-1.433c2.158-0.965,4.006-1.817,5.539-2.557c1.534-0.737,2.557-1.249,3.068-1.534
			c0.737-0.454,1.193-0.895,1.363-1.321s0.142-0.767-0.085-1.022c-0.228-0.256-0.567-0.412-1.022-0.469
			c-0.455-0.056-0.91,0.057-1.364,0.34c-0.341,0.171-1.208,0.597-2.6,1.279c-1.393,0.682-3.083,1.478-5.07,2.387
			c-1.142,0.521-2.354,1.055-3.606,1.595c0-0.001-0.001-0.003-0.001-0.004c-1.956,0.725-3.757,1.339-5.385,1.829
			c-1.806,0.545-3.169,0.789-4.085,0.731c-0.229,0-0.244-0.301-0.043-0.903c0.2-0.602,0.544-1.39,1.032-2.365
			c0.486-0.974,1.045-2.064,1.677-3.268c0.63-1.204,1.261-2.437,1.892-3.698c0.631-1.26,0.932-2.292,0.903-3.096
			c-0.029-0.802-0.315-1.389-0.86-1.763c-0.545-0.373-1.319-0.53-2.321-0.473c-1.004,0.058-2.137,0.288-3.397,0.688
			c-1.032,0.402-2.294,0.989-3.784,1.763c-1.491,0.774-3.024,1.648-4.601,2.623c-1.577,0.976-3.11,2.007-4.601,3.096
			c-1.492,1.09-2.725,2.122-3.698,3.096c0.688-1.261,1.361-2.25,2.021-2.967c0.659-0.716,1.104-1.561,1.333-2.537
			c0.114-0.458-0.015-0.917-0.387-1.376c-0.374-0.458-0.847-0.831-1.419-1.118c-0.574-0.286-1.19-0.458-1.849-0.516
			c-0.66-0.056-1.219,0.086-1.678,0.43c-0.168,0.126-0.336,0.271-0.504,0.433c-0.295,0.083-0.608,0.188-0.957,0.341
			c-0.918,0.402-2.15,0.933-3.698,1.591c-1.548,0.66-3.24,1.305-5.074,1.935c-1.835,0.632-3.713,1.19-5.633,1.677
			c-1.922,0.488-3.655,0.731-5.203,0.731c0.63-1.261,0.946-2.522,0.946-3.784c0-1.26-0.374-2.365-1.118-3.311
			c-0.746-0.946-1.864-1.72-3.354-2.322c-1.492-0.602-3.384-0.903-5.677-0.903c-3.211,0-5.977,0.503-8.299,1.505
			c-1.675,0.724-3.118,1.587-4.345,2.579c-0.029,0.016-0.055,0.026-0.084,0.044c-0.632,0.344-1.892,1.019-3.784,2.021
			c-1.892,1.003-4.028,2.107-6.407,3.311c-2.379,1.204-4.815,2.365-7.31,3.483c-2.494,1.118-4.659,1.964-6.493,2.537
			c-1.835,0.632-3.282,1.004-4.343,1.118c-1.062,0.116-1.72-0.114-1.979-0.688c-0.258-0.572-0.129-1.562,0.388-2.967
			c0.516-1.404,1.404-3.339,2.666-5.805l2.494-4.988c3.439-2.694,6.708-5.504,9.804-8.428s5.904-5.805,8.428-8.643
			c2.522-2.838,4.688-5.547,6.493-8.127s3.167-4.873,4.085-6.88c0.916-2.006,1.333-3.668,1.247-4.988
			c-0.086-1.318-0.789-2.12-2.107-2.408c-1.72-0.4-3.626-0.186-5.719,0.645c-2.094,0.832-4.2,2.093-6.321,3.784
			c-2.121,1.692-4.186,3.685-6.191,5.977c-2.008,2.294-3.813,4.73-5.418,7.31c-1.893,3.04-3.87,6.407-5.935,10.105
			c-2.063,3.698-4.014,7.297-5.848,10.793c-1.204-0.4-2.853-0.774-4.945-1.118c-2.093-0.344-4.329-0.33-6.708,0.043
			c-2.38,0.374-4.729,1.247-7.052,2.623s-4.313,3.526-5.977,6.45c-1.835,3.268-2.766,5.663-2.795,7.181
			c-0.028,1.52,0.43,2.494,1.376,2.924C8.676,61.785,9.909,61.843,11.428,61.527z M76.229,45.488c2.064,0,3.411,0.545,4.042,1.634
			c-0.976-0.114-1.892-0.028-2.752,0.258c-0.859,0.287-1.548,0.717-2.063,1.29c-0.517,0.574-0.746,1.204-0.688,1.892
			c0.057,0.688,0.517,1.348,1.376,1.978c0.345,0.288,0.717,0.545,1.118,0.774c0.4,0.23,0.83,0.402,1.29,0.516
			c-1.147,1.434-2.638,2.666-4.472,3.698c-1.836,1.032-3.842,1.548-6.021,1.548c-1.72,0-2.866-0.702-3.439-2.107
			c-0.572-1.404-0.56-2.967,0.043-4.687c0.602-1.72,1.862-3.282,3.784-4.687C70.366,46.191,72.961,45.488,76.229,45.488z
			 M46.946,33.878c0.658-1.204,1.275-2.292,1.849-3.268c1.49-2.58,3.081-5.203,4.773-7.869c1.69-2.666,3.367-5.103,5.03-7.31
			c1.663-2.207,3.254-3.999,4.773-5.375c1.519-1.376,2.852-2.064,3.999-2.064c0.63,0,0.83,0.473,0.602,1.419
			c-0.229,0.946-0.816,2.193-1.763,3.741c-0.946,1.548-2.18,3.34-3.698,5.375c-1.52,2.036-3.225,4.171-5.116,6.407
			c-1.893,2.236-3.913,4.458-6.063,6.665c-2.15,2.208-4.343,4.287-6.579,6.235C45.556,36.402,46.286,35.082,46.946,33.878z
			 M14.868,55.464c0.258-0.802,0.701-1.734,1.333-2.795c0.63-1.06,1.462-2.15,2.494-3.268c1.032-1.118,2.235-2.064,3.611-2.838
			s2.925-1.26,4.645-1.462c1.72-0.2,3.582,0.073,5.59,0.817c-0.172,0.288-0.33,0.546-0.473,0.774
			c-0.145,0.23-0.273,0.488-0.388,0.774c-0.058,0-0.086,0.058-0.086,0.172c-1.605,1.147-3.311,2.309-5.116,3.483
			c-1.807,1.176-3.498,2.236-5.074,3.182c-1.578,0.946-2.967,1.677-4.171,2.193s-2.036,0.632-2.494,0.344
			C14.567,56.726,14.61,56.268,14.868,55.464z"/>
		<path fill="#FFFFFF" d="M165.492,22.676c0.344-0.63,0.387-1.131,0.129-1.505c-0.258-0.373-0.688-0.573-1.29-0.602
			c-0.602-0.028-1.29,0.101-2.063,0.387c-0.774,0.288-1.505,0.746-2.193,1.376c-0.458,0.46-0.787,0.961-0.989,1.505
			c-0.2,0.545-0.357,1.19-0.473,1.935c-0.114,0.746-0.286,1.548-0.516,2.408c-0.229,0.86-0.603,1.806-1.118,2.838
			c-0.4,0.688-0.588,1.219-0.56,1.591c0.03,0.374,0.188,0.574,0.474,0.602c0.287,0.029,0.645-0.057,1.075-0.258
			c0.43-0.2,0.846-0.529,1.246-0.989c0.173-0.172,0.503-0.559,0.989-1.161c0.488-0.602,1.047-1.333,1.677-2.193
			c0.632-0.86,1.277-1.806,1.936-2.838C164.475,24.74,165.034,23.708,165.492,22.676z"/>
		<path fill="#FFFFFF" d="M197.727,54.862c2.493-1.032,4.743-2.021,6.751-2.967c2.006-0.946,3.683-1.763,5.03-2.451
			c1.347-0.688,2.136-1.118,2.365-1.29c0.4-0.287,0.673-0.616,0.817-0.989c0.143-0.372,0.143-0.688,0-0.946
			c-0.145-0.258-0.417-0.43-0.817-0.516c-0.401-0.086-0.918,0.043-1.548,0.387c-0.46,0.229-1.262,0.617-2.408,1.161
			c-1.147,0.546-2.509,1.176-4.085,1.892c-1.577,0.718-3.298,1.477-5.16,2.279c-1.863,0.803-3.713,1.591-5.547,2.365
			c-1.836,0.774-3.599,1.477-5.289,2.107c-1.691,0.632-3.168,1.118-4.429,1.462c-1.893,0.516-3.556,0.832-4.988,0.946
			c-1.434,0.115-2.494-0.1-3.182-0.645c-0.688-0.544-0.961-1.49-0.817-2.838c0.143-1.347,0.817-3.253,2.021-5.719l2.099-4.114
			c0.451-0.333,0.888-0.648,1.35-0.994c-0.002-0.003-0.006-0.007-0.008-0.011c3.949-2.737,7.545-5.695,10.749-8.9
			c1.948,0,3.827-0.013,5.633-0.043c1.807-0.028,3.44-0.043,4.902-0.043s2.694,0,3.698,0c1.002,0,1.677,0,2.021,0
			c0.803,0,1.404-0.143,1.807-0.43c0.4-0.286,0.602-0.615,0.602-0.989c0-0.372-0.201-0.702-0.602-0.989
			c-0.402-0.286-1.004-0.43-1.807-0.43c-0.631,0-2.235,0.043-4.815,0.129s-5.59,0.159-9.03,0.215c2.408-2.694,4.5-5.36,6.278-7.998
			c1.776-2.636,3.109-5.044,3.999-7.224c0.888-2.178,1.274-3.999,1.161-5.461c-0.116-1.462-0.86-2.335-2.236-2.623
			c-3.44-0.802-6.637-0.1-9.589,2.107c-2.954,2.208-6.035,5.891-9.245,11.051c-0.976,1.548-1.979,3.212-3.01,4.988
			c-1.032,1.778-2.094,3.642-3.183,5.59c-2.352,0.058-4.472,0.086-6.363,0.086c-1.893,0-3.383,0-4.473,0
			c-0.744-0.056-1.318,0.03-1.72,0.258c-0.4,0.229-0.615,0.502-0.646,0.817c-0.027,0.315,0.086,0.602,0.345,0.86
			c0.258,0.258,0.702,0.387,1.333,0.387c0.401,0,1.534-0.014,3.396-0.043c1.862-0.028,4.113-0.043,6.751-0.043
			c-1.204,2.122-2.337,4.229-3.396,6.321c-1.062,2.093-2.051,4.057-2.968,5.891c-0.146,0.283-0.275,0.56-0.411,0.838
			c-0.846,0.564-1.625,1.076-2.325,1.528c-1.315,0.847-2.135,1.374-2.46,1.58c-0.481,0.244-0.817,0.579-1.005,1
			c-0.188,0.422-0.231,0.798-0.129,1.128c0.103,0.329,0.382,0.531,0.839,0.606c0.457,0.076,1.075-0.089,1.853-0.489
			c0.296-0.169,0.767-0.461,1.373-0.848c-0.046,0.139-0.099,0.28-0.142,0.417c-0.572,1.835-0.702,3.412-0.388,4.73
			c0.316,1.32,1.176,2.322,2.58,3.01s3.598,0.89,6.579,0.602c1.948-0.172,4.171-0.602,6.665-1.29s5.031-1.505,7.611-2.451
			S195.232,55.894,197.727,54.862z M186.589,30.61c1.49-2.58,2.838-4.974,4.042-7.181c1.204-2.207,2.351-4.113,3.44-5.719
			c1.088-1.604,2.149-2.866,3.182-3.784c1.032-0.917,2.12-1.376,3.269-1.376c0.802,0,1.045,0.617,0.73,1.849
			c-0.315,1.234-1.032,2.81-2.149,4.73c-1.118,1.922-2.567,4.072-4.344,6.45c-1.777,2.38-3.756,4.717-5.934,7.009
			c-0.632,0.058-1.219,0.073-1.763,0.043c-0.546-0.028-1.133-0.014-1.764,0.043L186.589,30.61z M184.009,35.168h2.236
			c-0.746,0.688-1.491,1.363-2.236,2.021c-0.745,0.66-1.52,1.305-2.321,1.935L184.009,35.168z"/>
		<path fill="#FFFFFF" d="M442.221,46.047c-0.201-0.258-0.53-0.416-0.989-0.473c-0.459-0.057-0.945,0.058-1.462,0.344
			c-0.344,0.172-1.074,0.488-2.192,0.946c-1.118,0.459-2.466,0.976-4.042,1.548c-1.578,0.574-3.255,1.161-5.031,1.763
			c-1.778,0.602-3.483,1.133-5.117,1.591c-1.634,0.459-3.125,0.832-4.472,1.118c-1.348,0.288-2.337,0.402-2.967,0.344
			c-0.288,0-0.445-0.186-0.474-0.559c-0.029-0.372,0.028-0.83,0.172-1.376c0.143-0.544,0.357-1.131,0.646-1.763
			c0.286-0.63,0.572-1.232,0.859-1.806c0.688-1.204,1.018-2.207,0.989-3.01c-0.029-0.802-0.315-1.404-0.859-1.806
			c-0.546-0.4-1.333-0.573-2.365-0.516c-1.032,0.058-2.18,0.288-3.44,0.688c-1.031,0.402-2.294,0.989-3.784,1.763
			c-1.491,0.774-3.024,1.648-4.601,2.623c-1.577,0.976-3.096,2.007-4.558,3.096c-1.462,1.09-2.709,2.122-3.741,3.096
			c0.63-1.261,1.304-2.25,2.021-2.967c0.717-0.716,1.218-1.561,1.505-2.537c0.057-0.458-0.101-0.917-0.473-1.376
			c-0.373-0.458-0.86-0.831-1.462-1.118c-0.602-0.286-1.233-0.458-1.892-0.516c-0.66-0.056-1.247,0.086-1.764,0.43
			c-0.148,0.111-0.304,0.252-0.462,0.404c-0.153,0.022-0.313,0.056-0.482,0.112c-0.631,0.229-1.634,0.674-3.01,1.333
			c-1.376,0.66-2.981,1.405-4.816,2.236c-1.835,0.832-3.771,1.692-5.805,2.58c-2.036,0.89-3.985,1.692-5.848,2.408
			c-1.864,0.718-3.556,1.29-5.074,1.72c-1.52,0.43-2.652,0.617-3.397,0.559c-0.803-0.057-1.147-0.258-1.031-0.602
			c0.114-0.344,0.357-0.745,0.73-1.204c0.372-0.458,0.76-0.946,1.161-1.462c0.4-0.516,0.516-0.974,0.344-1.376
			c-0.115-0.4-0.344-0.817-0.688-1.247s-0.731-0.817-1.161-1.161c-0.43-0.344-0.89-0.587-1.376-0.731
			c-0.488-0.143-0.989-0.1-1.505,0.129c-0.517,0.23-1.462,0.774-2.838,1.634c-1.376,0.86-2.811,1.763-4.3,2.709
			c-1.492,0.946-2.868,1.763-4.129,2.451c-1.262,0.688-2.007,0.946-2.235,0.774c-0.172-0.114-0.159-0.559,0.043-1.333
			c0.2-0.774,0.587-1.677,1.161-2.709c0.572-1.032,1.333-2.092,2.278-3.182c0.946-1.088,2.121-1.978,3.526-2.666
			c1.404-0.688,3.023-1.075,4.859-1.161c1.834-0.086,3.897,0.331,6.191,1.247c0.631,0.288,1.175,0.359,1.634,0.215
			c0.459-0.142,0.788-0.357,0.989-0.645c0.2-0.286,0.243-0.63,0.129-1.032c-0.115-0.4-0.373-0.716-0.773-0.946
			c-0.517-0.228-1.32-0.544-2.408-0.946c-1.09-0.4-2.38-0.716-3.87-0.946c-1.491-0.229-3.096-0.33-4.816-0.301
			c-1.72,0.03-3.454,0.344-5.202,0.946c-1.623,0.558-3.181,1.4-4.679,2.501c-0.139,0.055-0.285,0.124-0.438,0.208
			c-0.402,0.229-1.219,0.631-2.451,1.204c-1.233,0.574-2.724,1.247-4.472,2.021c-1.75,0.774-3.698,1.591-5.849,2.451
			c-2.149,0.86-4.329,1.692-6.536,2.494c-2.207,0.803-4.386,1.535-6.536,2.193c-2.149,0.66-4.114,1.161-5.891,1.505
			c-3.384,0.632-6.035,0.903-7.955,0.817c-1.921-0.086-3.298-0.43-4.128-1.032c-0.832-0.602-1.204-1.39-1.118-2.365
			c0.086-0.974,0.474-2.064,1.161-3.268c1.032,1.147,2.408,1.892,4.128,2.236c1.721,0.344,3.426,0.344,5.117,0
			c1.69-0.344,3.182-0.974,4.472-1.892c1.29-0.917,2.021-2.092,2.193-3.526c0.114-1.376-0.187-2.522-0.903-3.44
			c-0.717-0.917-1.72-1.591-3.01-2.021c-1.29-0.43-2.738-0.602-4.343-0.516c-1.605,0.086-3.255,0.402-4.945,0.946
			c-1.592,0.514-3.105,1.249-4.543,2.193c-0.426,0.188-1.087,0.459-1.992,0.817c-1.233,0.488-2.709,1.032-4.429,1.634
			c-1.721,0.602-3.569,1.219-5.547,1.849c-1.979,0.631-3.9,1.204-5.763,1.72c-1.863,0.516-3.568,0.917-5.117,1.204
			c-1.548,0.288-2.724,0.402-3.525,0.344c-0.288,0-0.43-0.229-0.43-0.688c0-0.458,0.086-1.002,0.258-1.634
			c0.172-0.63,0.4-1.29,0.688-1.978c0.286-0.688,0.603-1.318,0.946-1.892c0.688-1.204,1.018-2.193,0.989-2.967
			c-0.03-0.774-0.302-1.333-0.817-1.677c-0.516-0.344-1.262-0.487-2.236-0.43c-0.976,0.058-2.093,0.288-3.354,0.688
			c-1.319,0.459-2.767,1.233-4.343,2.322c-1.578,1.089-3.169,2.293-4.773,3.612l2.15-4.214c3.268-2.292,6.392-4.859,9.374-7.697
			c2.98-2.838,5.689-5.719,8.127-8.643c2.436-2.924,4.558-5.775,6.363-8.557c1.807-2.78,3.168-5.289,4.085-7.525
			c0.917-2.236,1.361-4.085,1.333-5.547c-0.029-1.462-0.674-2.307-1.935-2.537c-3.498-0.63-7.066,0.503-10.707,3.397
			c-3.642,2.896-7.438,7.899-11.395,15.007c-1.262,2.236-2.795,4.945-4.602,8.127c-1.806,3.182-3.67,6.536-5.59,10.062
			c-1.922,3.526-3.841,7.052-5.762,10.578c-1.921,3.526-3.655,6.737-5.203,9.632c-1.548,2.896-2.809,5.304-3.784,7.224
			c-0.975,1.921-1.49,3.053-1.548,3.397c-0.114,0.688,0.043,1.247,0.473,1.677c0.431,0.43,0.976,0.731,1.634,0.903
			c0.66,0.172,1.333,0.187,2.021,0.043c0.688-0.143,1.204-0.444,1.548-0.903c0.115-0.172,0.503-0.83,1.161-1.978
			c0.66-1.146,1.477-2.623,2.451-4.429c0.976-1.806,2.094-3.855,3.354-6.149c1.261-2.292,2.58-4.701,3.956-7.224
			c1.662-1.49,3.297-2.709,4.902-3.655c1.604-0.946,2.809-1.561,3.612-1.849c0.114,0.803,0.215,1.648,0.301,2.537
			c0.086,0.89,0.286,1.735,0.602,2.537c0.314,0.804,0.774,1.492,1.376,2.064c0.603,0.574,1.447,0.918,2.537,1.032
			c1.261,0.172,2.809,0.144,4.645-0.086c1.834-0.229,3.783-0.587,5.848-1.075c2.064-0.486,4.156-1.06,6.278-1.72
			c2.12-0.659,4.085-1.304,5.891-1.935c0.37-0.129,0.724-0.257,1.074-0.384c-0.56,0.892-1.077,1.812-1.505,2.792
			c-0.602,1.376-0.731,2.666-0.387,3.87c0.344,1.204,1.348,2.208,3.01,3.01c1.663,0.804,4.356,1.176,8.084,1.118
			c2.752-0.056,5.633-0.387,8.643-0.989c3.011-0.602,5.991-1.347,8.944-2.236c2.952-0.888,5.805-1.862,8.557-2.924
			c2.753-1.06,5.217-2.064,7.396-3.01c1.321-0.574,2.501-1.095,3.569-1.574c-0.014,0.024-0.029,0.044-0.043,0.068
			c-1.261,2.18-2.078,3.956-2.451,5.332c-0.372,1.376-0.458,2.451-0.258,3.225c0.201,0.774,0.631,1.29,1.29,1.548
			c0.659,0.258,1.434,0.344,2.321,0.258c0.89-0.086,1.807-0.301,2.752-0.645c0.946-0.344,1.819-0.716,2.623-1.118
			c1.146-0.572,2.351-1.217,3.612-1.935c1.261-0.716,2.437-1.389,3.526-2.021c1.088-0.63,1.991-1.161,2.709-1.591
			c0.716-0.43,1.131-0.673,1.247-0.731c-0.116,0.115-0.402,0.502-0.86,1.161c-0.46,0.66-0.789,1.406-0.989,2.236
			c-0.201,0.832-0.086,1.591,0.344,2.279c0.431,0.688,1.533,1.118,3.312,1.29c1.146,0.116,2.666-0.086,4.558-0.602
			c1.893-0.516,3.941-1.161,6.149-1.935c2.206-0.774,4.457-1.647,6.751-2.623c2.292-0.974,4.429-1.905,6.407-2.795
			c1.922-0.863,3.567-1.63,4.949-2.305c-0.483,0.805-0.96,1.627-1.425,2.477c-0.831,1.52-1.562,2.967-2.193,4.343
			c-0.63,1.376-1.032,2.352-1.204,2.924c-0.114,0.46,0.072,0.933,0.56,1.419c0.487,0.488,1.074,0.86,1.763,1.118
			c0.688,0.258,1.391,0.359,2.106,0.301c0.718-0.057,1.247-0.373,1.592-0.946c0.917-1.604,2.264-3.225,4.042-4.859
			c1.776-1.634,3.625-3.139,5.547-4.515c1.92-1.376,3.741-2.55,5.461-3.526c1.72-0.974,2.952-1.576,3.698-1.806
			c-0.688,1.204-1.277,2.38-1.764,3.526c-0.487,1.148-0.773,2.165-0.859,3.053c-0.086,0.89,0.071,1.634,0.473,2.236
			c0.4,0.602,1.146,0.933,2.236,0.989c1.204,0.172,2.752,0.116,4.644-0.172c1.892-0.287,3.927-0.702,6.106-1.247
			c2.178-0.544,4.399-1.175,6.665-1.892c2.264-0.716,4.371-1.404,6.32-2.064c1.948-0.659,3.626-1.29,5.031-1.892
			c1.404-0.602,2.365-1.045,2.881-1.333c0.744-0.458,1.204-0.903,1.376-1.333S442.421,46.305,442.221,46.047z M268.03,34.738
			c0.744-1.433,1.404-2.637,1.978-3.612c1.376-2.464,2.866-5.087,4.473-7.869c1.604-2.78,3.182-5.317,4.729-7.611
			c1.548-2.292,3.038-4.199,4.472-5.719c1.433-1.519,2.723-2.279,3.87-2.279c0.803,0,1.146,0.503,1.032,1.505
			c-0.115,1.003-0.616,2.365-1.505,4.085c-0.89,1.72-2.094,3.698-3.612,5.934c-1.52,2.236-3.225,4.53-5.117,6.88
			c-1.892,2.352-3.942,4.687-6.148,7.009c-2.208,2.322-4.429,4.429-6.665,6.321C266.452,37.72,267.284,36.172,268.03,34.738z
			 M307.202,46.477c1.404-0.658,2.651-0.946,3.741-0.86c1.089,0.086,1.963,0.445,2.623,1.075c0.658,0.632,0.932,1.376,0.817,2.236
			c-0.116,0.917-0.632,1.634-1.549,2.15s-1.964,0.832-3.139,0.946c-1.176,0.116-2.38,0.015-3.612-0.301
			c-1.233-0.314-2.222-0.874-2.967-1.677C304.436,48.326,305.797,47.137,307.202,46.477z"/>
		<path fill="#FFFFFF" d="M152.64,123.789c-0.374-0.143-0.875-0.043-1.505,0.301c-0.402,0.229-1.219,0.631-2.451,1.204
			c-1.233,0.574-2.724,1.247-4.472,2.021c-1.75,0.774-3.698,1.591-5.849,2.451c-2.149,0.86-4.329,1.692-6.536,2.494
			c-2.207,0.803-4.386,1.535-6.536,2.193c-2.149,0.66-4.114,1.161-5.891,1.505c-3.384,0.632-6.035,0.903-7.955,0.817
			c-1.921-0.086-3.298-0.43-4.128-1.032c-0.832-0.602-1.204-1.39-1.118-2.365c0.086-0.974,0.474-2.064,1.161-3.268
			c1.032,1.147,2.408,1.892,4.128,2.236c1.721,0.344,3.426,0.344,5.117,0c1.69-0.344,3.182-0.974,4.472-1.892
			c1.29-0.917,2.021-2.092,2.193-3.526c0.114-1.376-0.187-2.522-0.903-3.44c-0.717-0.917-1.72-1.591-3.01-2.021
			c-1.29-0.43-2.738-0.602-4.343-0.516c-1.605,0.086-3.255,0.402-4.945,0.946c-1.525,0.492-2.978,1.191-4.361,2.079
			c-0.08,0.036-0.158,0.069-0.239,0.114c-0.344,0.172-1.204,0.602-2.58,1.29c-1.376,0.688-3.067,1.491-5.074,2.408
			c-2.007,0.918-4.171,1.878-6.492,2.881c-2.322,1.004-4.588,1.922-6.794,2.752c-2.208,0.832-4.229,1.52-6.063,2.064
			c-1.836,0.545-3.212,0.789-4.128,0.731c-0.229,0-0.229-0.301,0-0.903c0.229-0.602,0.572-1.389,1.032-2.365
			c0.458-0.974,1.017-2.078,1.677-3.311c0.658-1.232,1.304-2.451,1.935-3.655c0.631-1.26,0.932-2.292,0.903-3.096
			c-0.029-0.802-0.33-1.404-0.903-1.806c-0.573-0.4-1.348-0.572-2.321-0.516c-0.976,0.058-2.094,0.316-3.354,0.774
			c-0.918,0.344-1.992,0.817-3.225,1.419c-1.233,0.602-2.509,1.29-3.827,2.064c-1.319,0.774-2.638,1.621-3.956,2.537
			c-1.319,0.918-2.523,1.806-3.612,2.666l3.183-6.02c3.096-2.006,6.063-4.356,8.9-7.052c2.838-2.694,5.432-5.504,7.783-8.428
			c2.351-2.924,4.399-5.833,6.149-8.729c1.748-2.894,3.081-5.504,3.999-7.826c0.916-2.322,1.376-4.257,1.376-5.805
			s-0.603-2.464-1.807-2.752c-1.72-0.344-3.396-0.314-5.03,0.086c-1.635,0.402-3.298,1.262-4.988,2.58
			c-1.691,1.319-3.44,3.154-5.246,5.504c-1.806,2.352-3.713,5.276-5.719,8.772c-1.262,2.236-2.609,4.644-4.042,7.224
			c-1.434,2.58-2.881,5.175-4.344,7.783c-1.462,2.609-2.867,5.146-4.214,7.611c-0.173,0.316-0.334,0.616-0.501,0.924
			c-0.129,0.055-0.262,0.117-0.401,0.194c-0.46,0.229-1.262,0.617-2.408,1.161c-1.147,0.546-2.509,1.176-4.085,1.892
			c-1.577,0.718-3.298,1.477-5.16,2.279c-1.863,0.803-3.713,1.591-5.547,2.365c-1.836,0.774-3.599,1.477-5.289,2.107
			c-1.691,0.632-3.168,1.118-4.429,1.462c-1.893,0.516-3.556,0.832-4.988,0.946c-1.434,0.115-2.494-0.1-3.182-0.645
			c-0.688-0.544-0.961-1.49-0.817-2.838c0.143-1.347,0.817-3.253,2.021-5.719l2.149-4.214c4.473-2.98,8.484-6.249,12.04-9.804
			c1.948,0,3.827-0.013,5.633-0.043c1.807-0.028,3.44-0.043,4.902-0.043s2.694,0,3.698,0c1.002,0,1.677,0,2.021,0
			c0.803,0,1.404-0.143,1.807-0.43c0.4-0.286,0.602-0.615,0.602-0.989c0-0.372-0.201-0.702-0.602-0.989
			c-0.402-0.286-1.004-0.43-1.807-0.43c-0.631,0-2.235,0.043-4.815,0.129s-5.59,0.159-9.03,0.215c2.408-2.694,4.5-5.36,6.278-7.998
			c1.776-2.636,3.109-5.044,3.999-7.224c0.888-2.178,1.274-3.999,1.161-5.461c-0.116-1.462-0.86-2.335-2.236-2.623
			c-3.44-0.802-6.637-0.1-9.589,2.107c-2.954,2.208-6.035,5.891-9.245,11.051c-0.976,1.548-1.979,3.212-3.01,4.988
			c-1.032,1.778-2.094,3.642-3.183,5.59c-2.352,0.058-4.472,0.086-6.363,0.086c-1.893,0-3.383,0-4.473,0
			c-0.744-0.056-1.318,0.03-1.72,0.258c-0.4,0.229-0.615,0.502-0.646,0.817c-0.027,0.315,0.086,0.602,0.345,0.86
			c0.258,0.258,0.702,0.387,1.333,0.387c0.401,0,1.534-0.014,3.396-0.043c1.862-0.028,4.113-0.043,6.751-0.043
			c-1.204,2.122-2.337,4.229-3.396,6.321c-1.062,2.093-2.051,4.057-2.968,5.891c-1.031,2.007-1.834,3.928-2.407,5.762
			c-0.572,1.835-0.702,3.412-0.388,4.73c0.316,1.32,1.176,2.322,2.58,3.01s3.598,0.89,6.579,0.602
			c1.948-0.172,4.171-0.602,6.665-1.29s5.031-1.505,7.611-2.451s5.117-1.935,7.611-2.967c2.493-1.032,4.743-2.021,6.751-2.967
			c1.579-0.744,2.945-1.406,4.116-1.99c-0.31,0.595-0.609,1.176-0.892,1.732c-1.003,1.978-1.807,3.626-2.408,4.945
			c-0.603,1.32-0.873,2.15-0.817,2.494c0.058,0.516,0.288,0.933,0.688,1.247c0.401,0.315,0.89,0.531,1.462,0.645
			c0.573,0.115,1.147,0.172,1.72,0.172c0.574,0,1.032-0.057,1.376-0.172c0.116-0.057,0.46-0.516,1.032-1.376h0.086
			c0.572-0.975,1.647-2.121,3.225-3.44c1.577-1.318,3.254-2.594,5.031-3.827c1.776-1.232,3.454-2.307,5.031-3.225
			c1.576-0.917,2.68-1.462,3.311-1.634c-0.631,1.147-1.262,2.293-1.892,3.44c-0.516,0.976-1.047,2.036-1.591,3.182
			c-0.546,1.148-0.989,2.236-1.333,3.268c-0.746,2.064-0.761,3.584-0.043,4.558c0.716,0.976,2.507,1.204,5.375,0.688
			c1.318-0.229,3.053-0.701,5.203-1.419c2.149-0.716,4.442-1.533,6.88-2.451c2.436-0.916,4.93-1.905,7.481-2.967
			c2.551-1.06,4.902-2.064,7.053-3.01c0.778-0.343,1.506-0.667,2.209-0.984c-0.398,0.691-0.768,1.403-1.092,2.145
			c-0.602,1.376-0.731,2.666-0.387,3.87c0.344,1.204,1.348,2.208,3.01,3.01c1.663,0.804,4.356,1.176,8.084,1.118
			c2.752-0.056,5.633-0.387,8.643-0.989c3.011-0.602,5.991-1.347,8.944-2.236c2.952-0.888,5.805-1.862,8.557-2.924
			c2.753-1.06,5.217-2.064,7.396-3.01c2.178-0.946,4.013-1.763,5.504-2.451c1.49-0.688,2.437-1.146,2.838-1.376
			c0.631-0.344,1.075-0.745,1.333-1.204c0.258-0.458,0.344-0.86,0.258-1.204C153.241,124.176,153.012,123.933,152.64,123.789z
			 M67.414,113.125c0.83-1.69,1.562-3.109,2.192-4.257c1.261-2.58,2.608-5.173,4.042-7.783c1.433-2.608,2.882-4.973,4.344-7.095
			c1.462-2.121,2.881-3.855,4.257-5.203c1.376-1.346,2.637-2.021,3.784-2.021c0.688,0,0.945,0.559,0.773,1.677
			c-0.172,1.118-0.702,2.566-1.591,4.343c-0.89,1.778-2.051,3.813-3.483,6.106c-1.434,2.294-3.067,4.601-4.901,6.923
			c-1.836,2.322-3.784,4.588-5.849,6.794c-2.063,2.208-4.157,4.143-6.277,5.805C65.679,116.58,66.582,114.817,67.414,113.125z
			 M30.047,108.61c1.49-2.58,2.838-4.974,4.042-7.181c1.204-2.207,2.351-4.113,3.44-5.719c1.088-1.604,2.149-2.866,3.182-3.784
			c1.032-0.917,2.12-1.376,3.269-1.376c0.802,0,1.045,0.617,0.73,1.849c-0.315,1.234-1.032,2.81-2.149,4.73
			c-1.118,1.922-2.567,4.072-4.344,6.45c-1.777,2.38-3.756,4.717-5.934,7.009c-0.632,0.058-1.219,0.073-1.763,0.043
			c-0.546-0.028-1.133-0.014-1.764,0.043L30.047,108.61z M27.467,113.168h2.236c-0.746,0.688-1.491,1.363-2.236,2.021
			c-0.745,0.66-1.52,1.305-2.321,1.935L27.467,113.168z M112.907,124.477c1.404-0.658,2.651-0.946,3.741-0.86
			c1.089,0.086,1.963,0.445,2.623,1.075c0.658,0.632,0.932,1.376,0.817,2.236c-0.116,0.917-0.632,1.634-1.549,2.15
			s-1.964,0.832-3.139,0.946c-1.176,0.116-2.38,0.015-3.612-0.301c-1.233-0.314-2.222-0.874-2.967-1.677
			C110.141,126.326,111.502,125.137,112.907,124.477z"/>
		<path fill="#FFFFFF" d="M440.35,123.703c-0.401-0.086-0.918,0.043-1.548,0.387c-0.46,0.229-1.262,0.617-2.408,1.161
			c-1.147,0.546-2.509,1.176-4.085,1.892c-1.577,0.718-3.298,1.477-5.16,2.279c-1.863,0.803-3.713,1.591-5.547,2.365
			c-1.836,0.774-3.599,1.477-5.289,2.107c-1.691,0.632-3.168,1.118-4.429,1.462c-1.893,0.516-3.556,0.832-4.988,0.946
			c-1.434,0.115-2.494-0.1-3.182-0.645c-0.688-0.544-0.961-1.49-0.817-2.838c0.143-1.347,0.817-3.253,2.021-5.719l2.149-4.214
			c4.473-2.98,8.484-6.249,12.04-9.804c1.948,0,3.827-0.013,5.633-0.043c1.807-0.028,3.44-0.043,4.902-0.043s2.694,0,3.698,0
			c1.002,0,1.677,0,2.021,0c0.803,0,1.404-0.143,1.807-0.43c0.4-0.286,0.602-0.615,0.602-0.989c0-0.372-0.201-0.702-0.602-0.989
			c-0.402-0.286-1.004-0.43-1.807-0.43c-0.631,0-2.235,0.043-4.815,0.129s-5.59,0.159-9.03,0.215c2.408-2.694,4.5-5.36,6.278-7.998
			c1.776-2.636,3.109-5.044,3.999-7.224c0.888-2.178,1.274-3.999,1.161-5.461c-0.116-1.462-0.86-2.335-2.236-2.623
			c-3.44-0.802-6.637-0.1-9.589,2.107c-2.954,2.208-6.035,5.891-9.245,11.051c-0.976,1.548-1.979,3.212-3.01,4.988
			c-1.032,1.778-2.094,3.642-3.183,5.59c-2.352,0.058-4.472,0.086-6.363,0.086c-1.893,0-3.383,0-4.473,0
			c-0.744-0.056-1.318,0.03-1.72,0.258c-0.4,0.229-0.615,0.502-0.646,0.817c-0.027,0.315,0.086,0.602,0.345,0.86
			c0.258,0.258,0.702,0.387,1.333,0.387c0.401,0,1.534-0.014,3.396-0.043c1.862-0.028,4.113-0.043,6.751-0.043
			c-1.204,2.122-2.337,4.229-3.396,6.321c-0.782,1.542-1.512,2.99-2.215,4.392c-0.184,0.018-0.374,0.054-0.58,0.123
			c-0.631,0.229-1.634,0.674-3.01,1.333c-1.376,0.66-2.981,1.405-4.816,2.236c-1.835,0.832-3.771,1.692-5.805,2.58
			c-2.036,0.89-3.985,1.692-5.848,2.408c-1.864,0.718-3.556,1.29-5.074,1.72c-1.52,0.43-2.652,0.617-3.397,0.559
			c-0.803-0.057-1.147-0.258-1.031-0.602c0.114-0.344,0.357-0.745,0.73-1.204c0.372-0.458,0.76-0.946,1.161-1.462
			c0.4-0.516,0.516-0.974,0.344-1.376c-0.115-0.4-0.344-0.817-0.688-1.247s-0.731-0.817-1.161-1.161
			c-0.43-0.344-0.89-0.587-1.376-0.731c-0.488-0.143-0.989-0.1-1.505,0.129c-0.517,0.23-1.462,0.774-2.838,1.634
			c-1.376,0.86-2.811,1.763-4.3,2.709c-1.492,0.946-2.868,1.763-4.129,2.451c-1.262,0.688-2.007,0.946-2.235,0.774
			c-0.172-0.114-0.159-0.559,0.043-1.333c0.2-0.774,0.587-1.677,1.161-2.709c0.572-1.032,1.333-2.092,2.278-3.182
			c0.946-1.088,2.121-1.978,3.526-2.666c1.404-0.688,3.023-1.075,4.859-1.161c1.834-0.086,3.897,0.331,6.191,1.247
			c0.631,0.288,1.175,0.359,1.634,0.215c0.459-0.142,0.788-0.357,0.989-0.645c0.2-0.286,0.243-0.63,0.129-1.032
			c-0.115-0.4-0.373-0.716-0.773-0.946c-0.517-0.228-1.32-0.544-2.408-0.946c-1.09-0.4-2.38-0.716-3.87-0.946
			c-1.491-0.229-3.096-0.33-4.816-0.301c-1.72,0.03-3.454,0.344-5.202,0.946c-1.623,0.558-3.181,1.4-4.679,2.501
			c-0.139,0.055-0.284,0.124-0.438,0.208c-0.402,0.229-1.219,0.631-2.451,1.204c-1.233,0.574-2.724,1.247-4.472,2.021
			c-1.75,0.774-3.698,1.591-5.849,2.451c-2.149,0.86-4.329,1.692-6.536,2.494c-2.207,0.803-4.386,1.535-6.536,2.193
			c-2.149,0.66-4.114,1.161-5.891,1.505c-3.384,0.632-6.035,0.903-7.955,0.817c-1.921-0.086-3.298-0.43-4.128-1.032
			c-0.832-0.602-1.204-1.39-1.118-2.365c0.086-0.974,0.474-2.064,1.161-3.268c1.032,1.147,2.408,1.892,4.128,2.236
			c1.721,0.344,3.426,0.344,5.117,0c1.69-0.344,3.182-0.974,4.472-1.892c1.29-0.917,2.021-2.092,2.193-3.526
			c0.114-1.376-0.187-2.522-0.903-3.44c-0.717-0.917-1.72-1.591-3.01-2.021c-1.29-0.43-2.738-0.602-4.343-0.516
			c-1.605,0.086-3.255,0.402-4.945,0.946c-1.594,0.514-3.108,1.251-4.548,2.197c-0.182,0.071-0.37,0.155-0.568,0.254
			c-0.574,0.288-1.692,0.817-3.354,1.591c-1.663,0.774-3.526,1.563-5.59,2.365c-2.064,0.804-4.1,1.52-6.106,2.15
			c-2.007,0.631-3.642,0.946-4.901,0.946c-0.804,0-1.535-0.258-2.193-0.774c-0.66-0.516-0.933-1.49-0.817-2.924
			c0.517-0.63,1.003-1.26,1.463-1.892c0.4-0.516,0.773-1.017,1.117-1.505c0.345-0.486,0.603-0.874,0.774-1.161
			c0.63-0.917,0.658-1.604,0.086-2.064c-0.574-0.458-1.319-0.314-2.236,0.43c-0.859,0.803-1.777,1.95-2.752,3.44
			c-0.976,1.492-2.078,3.01-3.311,4.558c-1.233,1.548-2.595,2.981-4.085,4.3c-1.492,1.32-3.126,2.208-4.902,2.666
			c-1.204,0.288-2.008,0.202-2.408-0.258c-0.401-0.458-0.53-1.132-0.387-2.021c0.143-0.888,0.473-1.935,0.989-3.139
			c0.516-1.204,1.075-2.365,1.677-3.483c0.602-1.118,1.161-2.15,1.677-3.096c0.517-0.946,0.831-1.619,0.946-2.021
			c0.286-0.974,0.071-1.576-0.646-1.806c-0.717-0.228-1.605-0.185-2.665,0.129c-1.063,0.315-2.137,0.803-3.226,1.462
			c-1.09,0.66-1.863,1.362-2.322,2.107c-0.459,0.574-0.976,1.462-1.548,2.666c-0.573,1.204-1.032,2.494-1.376,3.87
			c-1.147,1.376-2.365,2.566-3.655,3.569c-1.289,1.004-2.681,1.677-4.171,2.021c-0.745,0.172-1.133-0.071-1.16-0.731
			c-0.03-0.659,0.113-1.519,0.43-2.58c0.314-1.06,0.716-2.25,1.204-3.569c0.486-1.318,0.902-2.58,1.247-3.784
			c0.344-1.204,0.529-2.264,0.559-3.182c0.028-0.916-0.301-1.49-0.989-1.72c-0.976-0.344-2.05-0.443-3.225-0.301
			c-1.176,0.144-2.365,0.417-3.569,0.817c-1.204,0.401-2.38,0.875-3.525,1.419c-0.827,0.393-1.573,0.755-2.28,1.103
			c-0.125,0.038-0.252,0.086-0.385,0.145c-0.401,0.172-1.491,0.717-3.268,1.634c-1.778,0.918-3.971,1.95-6.579,3.096
			c-2.609,1.147-5.477,2.336-8.601,3.569c-3.125,1.233-6.265,2.251-9.417,3.053c1.776-1.548,3.168-3.253,4.171-5.117
			c1.003-1.862,1.533-3.612,1.592-5.246c0.056-1.634-0.445-2.995-1.506-4.085c-1.062-1.088-2.795-1.634-5.202-1.634
			c-1.721,0-3.44,0.201-5.16,0.602c-1.721,0.402-3.326,0.875-4.816,1.419c-1.491,0.545-2.81,1.104-3.956,1.677
			c-1.147,0.574-1.978,1.004-2.494,1.29c-0.516,0.288-0.859,0.631-1.031,1.032c-0.173,0.401-0.2,0.76-0.086,1.075
			c0.115,0.316,0.344,0.545,0.688,0.688c0.344,0.144,0.804,0.073,1.376-0.215c0.975-0.516,1.991-1.002,3.053-1.462
			c1.061-0.458,2.093-0.86,3.097-1.204c1.002-0.344,1.92-0.616,2.752-0.817c0.83-0.2,1.505-0.301,2.021-0.301
			c1.204,0,1.991,0.331,2.365,0.989c0.372,0.66,0.43,1.505,0.172,2.537c-0.258,1.032-0.761,2.122-1.505,3.268
			c-0.746,1.147-1.648,2.236-2.709,3.268c-1.062,1.032-2.236,1.878-3.526,2.537c-1.29,0.66-2.566,0.989-3.827,0.989
			c-0.631,0-1.031-0.185-1.203-0.559c-0.173-0.373-0.259-0.817-0.259-1.333c0-0.516-0.015-1.045-0.043-1.591
			c-0.029-0.544-0.158-1.017-0.387-1.419c-0.516-0.86-1.218-1.333-2.107-1.419c-0.888-0.086-1.69,0.073-2.407,0.473
			c-0.717,0.402-1.232,0.976-1.548,1.72c-0.314,0.746-0.186,1.548,0.387,2.408c0.401,0.574,0.89,1.161,1.462,1.763
			c0.573,0.602,1.276,1.148,2.106,1.634c0.832,0.488,1.807,0.89,2.925,1.204c1.118,0.315,2.364,0.473,3.74,0.473h0.173
			c2.464,0,5.102-0.301,7.911-0.903c2.809-0.602,5.619-1.346,8.429-2.236c2.809-0.888,5.561-1.877,8.256-2.967
			c2.694-1.088,5.117-2.135,7.267-3.139c2.15-1.002,3.956-1.892,5.418-2.666c1.212-0.642,2.059-1.105,2.581-1.413
			c0.179-0.038,0.362-0.092,0.557-0.179c1.089-0.458,1.992-0.845,2.709-1.161c0.717-0.314,1.361-0.587,1.936-0.817
			c0.172-0.056,0.129,0.245-0.129,0.903c-0.259,0.66-0.56,1.505-0.903,2.537c-0.344,1.032-0.688,2.18-1.032,3.44
			c-0.344,1.262-0.516,2.451-0.516,3.569s0.229,2.094,0.688,2.924c0.459,0.832,1.318,1.363,2.58,1.591
			c2.236,0.401,4.485,0.144,6.751-0.774c2.265-0.916,4.285-2.264,6.063-4.042c0.114,1.148,0.473,2.165,1.075,3.053
			c0.602,0.89,1.647,1.477,3.139,1.763c0.975,0.229,1.963,0.272,2.967,0.129c1.003-0.143,1.979-0.4,2.924-0.774
			c0.946-0.373,1.862-0.817,2.752-1.333c0.889-0.516,1.733-1.088,2.537-1.72c1.835-1.433,3.583-3.096,5.246-4.988
			c0.172,0.574,0.431,1.09,0.774,1.548c0.286,0.402,0.701,0.774,1.247,1.118c0.544,0.344,1.247,0.545,2.106,0.602
			c2.98,0.172,6.264-0.444,9.848-1.849c2.244-0.88,4.821-1.957,7.729-3.231c-0.572,0.908-1.102,1.845-1.538,2.844
			c-0.602,1.376-0.731,2.666-0.387,3.87c0.344,1.204,1.348,2.208,3.01,3.01c1.663,0.804,4.356,1.176,8.084,1.118
			c2.752-0.056,5.633-0.387,8.643-0.989c3.011-0.602,5.991-1.347,8.944-2.236c2.952-0.888,5.805-1.862,8.557-2.924
			c2.753-1.06,5.217-2.064,7.396-3.01c1.321-0.574,2.501-1.095,3.57-1.574c-0.015,0.024-0.029,0.044-0.044,0.068
			c-1.261,2.18-2.078,3.956-2.451,5.332c-0.372,1.376-0.458,2.451-0.258,3.225c0.201,0.774,0.631,1.29,1.29,1.548
			c0.659,0.258,1.434,0.344,2.321,0.258c0.89-0.086,1.807-0.301,2.752-0.645c0.946-0.344,1.819-0.716,2.623-1.118
			c1.146-0.572,2.351-1.217,3.612-1.935c1.261-0.716,2.437-1.389,3.526-2.021c1.088-0.63,1.991-1.161,2.709-1.591
			c0.716-0.43,1.131-0.673,1.247-0.731c-0.116,0.115-0.402,0.502-0.86,1.161c-0.46,0.66-0.789,1.406-0.989,2.236
			c-0.201,0.832-0.086,1.591,0.344,2.279c0.431,0.688,1.533,1.118,3.312,1.29c1.146,0.116,2.666-0.086,4.558-0.602
			c1.893-0.516,3.941-1.161,6.149-1.935c2.206-0.774,4.457-1.647,6.751-2.623c2.292-0.974,4.429-1.905,6.407-2.795
			c1.978-0.888,3.668-1.677,5.073-2.365c0.481-0.236,0.887-0.43,1.257-0.605c-0.552,1.239-1.021,2.447-1.386,3.615
			c-0.572,1.835-0.702,3.412-0.388,4.73c0.316,1.32,1.176,2.322,2.58,3.01s3.598,0.89,6.579,0.602
			c1.948-0.172,4.171-0.602,6.665-1.29s5.031-1.505,7.611-2.451s5.117-1.935,7.611-2.967c2.493-1.032,4.743-2.021,6.751-2.967
			c2.006-0.946,3.683-1.763,5.03-2.451c1.347-0.688,2.136-1.118,2.365-1.29c0.4-0.287,0.673-0.616,0.817-0.989
			c0.143-0.372,0.143-0.688,0-0.946C441.022,123.961,440.75,123.789,440.35,123.703z M415.065,108.61
			c1.49-2.58,2.838-4.974,4.042-7.181c1.204-2.207,2.351-4.113,3.44-5.719c1.088-1.604,2.149-2.866,3.182-3.784
			c1.032-0.917,2.12-1.376,3.269-1.376c0.802,0,1.045,0.617,0.73,1.849c-0.315,1.234-1.032,2.81-2.149,4.73
			c-1.118,1.922-2.567,4.072-4.344,6.45c-1.777,2.38-3.756,4.717-5.934,7.009c-0.632,0.058-1.219,0.073-1.763,0.043
			c-0.546-0.028-1.133-0.014-1.764,0.043L415.065,108.61z M412.485,113.168h2.236c-0.746,0.688-1.491,1.363-2.236,2.021
			c-0.745,0.66-1.52,1.305-2.321,1.935L412.485,113.168z M313.543,124.477c1.404-0.658,2.651-0.946,3.741-0.86
			c1.089,0.086,1.963,0.445,2.623,1.075c0.658,0.632,0.932,1.376,0.817,2.236c-0.116,0.917-0.632,1.634-1.549,2.15
			s-1.964,0.832-3.139,0.946c-1.176,0.116-2.38,0.015-3.612-0.301c-1.233-0.314-2.222-0.874-2.967-1.677
			C310.776,126.326,312.138,125.137,313.543,124.477z"/>
	</g>
</g>
</svg>
