<svg viewBox="0 0 437 137" version="1.1" xmlns="http://www.w3.org/2000/svg" xmlns:xlink="http://www.w3.org/1999/xlink">
    <title>Don't fear the sweat</title>
    <g stroke="none" stroke-width="1" fill="#ff5300" fill-rule="evenodd">
        <path d="M5.428,57.527 C6.949,57.213 8.366,56.854 9.686,56.452 C10.374,56.223 11.234,55.837 12.265,55.291 C13.297,54.747 14.415,54.117 15.619,53.399 C16.823,52.683 18.07,51.909 19.36,51.077 C20.65,50.246 21.897,49.43 23.101,48.626 C22.469,50.06 21.996,51.393 21.681,52.625 C21.366,53.859 21.38,54.891 21.724,55.721 C22.069,56.553 22.828,57.17 24.003,57.57 C25.178,57.971 26.941,58.086 29.292,57.914 C31.24,57.742 33.377,57.299 35.699,56.581 C38.021,55.865 40.328,55.033 42.622,54.087 C44.915,53.141 47.15,52.124 49.33,51.034 C51.509,49.946 53.472,48.927 55.221,47.981 C55.516,47.822 55.789,47.67 56.068,47.517 C55.987,47.729 55.891,47.938 55.824,48.153 C55.279,49.903 55.193,51.536 55.565,53.055 C55.939,54.575 56.784,55.837 58.102,56.839 C59.422,57.842 61.199,58.344 63.434,58.344 C67.161,58.344 70.444,57.642 73.282,56.237 C76.12,54.833 78.369,53.214 80.033,51.378 C82.383,51.378 84.748,51.092 87.128,50.518 C89.506,49.946 91.757,49.286 93.879,48.54 C95.999,47.796 97.892,47.05 99.555,46.304 C99.638,46.267 99.71,46.235 99.791,46.199 C99.563,46.632 99.336,47.064 99.124,47.508 C98.552,48.712 98.064,49.86 97.662,50.948 C97.262,52.038 96.974,52.869 96.803,53.442 C96.631,53.958 96.789,54.446 97.276,54.904 C97.763,55.363 98.351,55.721 99.039,55.979 C99.727,56.237 100.43,56.338 101.146,56.28 C101.864,56.223 102.393,55.907 102.737,55.334 C103.309,54.36 104.384,53.214 105.962,51.894 C107.539,50.576 109.231,49.314 111.036,48.11 C112.843,46.906 114.548,45.831 116.153,44.885 C117.757,43.939 118.876,43.38 119.507,43.208 C118.819,44.355 118.158,45.474 117.528,46.562 C116.955,47.538 116.395,48.598 115.851,49.744 C115.305,50.891 114.862,51.98 114.518,53.012 C113.83,55.192 113.858,56.753 114.604,57.699 C115.348,58.645 117.098,58.889 119.85,58.43 C121.168,58.201 122.903,57.728 125.053,57.011 C127.202,56.295 129.495,55.463 131.933,54.517 C132.222,54.405 132.52,54.286 132.811,54.172 C132.809,54.16 132.807,54.149 132.804,54.137 C133.945,53.654 135.057,53.174 136.108,52.704 C138.266,51.739 140.114,50.887 141.647,50.147 C143.181,49.41 144.204,48.898 144.715,48.613 C145.452,48.159 145.908,47.718 146.078,47.292 C146.248,46.866 146.22,46.525 145.993,46.27 C145.765,46.014 145.426,45.858 144.971,45.801 C144.516,45.745 144.061,45.858 143.607,46.141 C143.266,46.312 142.399,46.738 141.007,47.42 C139.614,48.102 137.924,48.898 135.937,49.807 C134.795,50.328 133.583,50.862 132.331,51.402 C132.331,51.401 132.33,51.399 132.33,51.398 C130.374,52.123 128.573,52.737 126.945,53.227 C125.139,53.772 123.776,54.016 122.86,53.958 C122.631,53.958 122.616,53.657 122.817,53.055 C123.017,52.453 123.361,51.665 123.849,50.69 C124.335,49.716 124.894,48.626 125.526,47.422 C126.156,46.218 126.787,44.985 127.418,43.724 C128.049,42.464 128.35,41.432 128.321,40.628 C128.292,39.826 128.006,39.239 127.461,38.865 C126.916,38.492 126.142,38.335 125.14,38.392 C124.136,38.45 123.003,38.68 121.743,39.08 C120.711,39.482 119.449,40.069 117.959,40.843 C116.468,41.617 114.935,42.491 113.358,43.466 C111.781,44.442 110.248,45.473 108.757,46.562 C107.265,47.652 106.032,48.684 105.059,49.658 C105.747,48.397 106.42,47.408 107.08,46.691 C107.739,45.975 108.184,45.13 108.413,44.154 C108.527,43.696 108.398,43.237 108.026,42.778 C107.652,42.32 107.179,41.947 106.607,41.66 C106.033,41.374 105.417,41.202 104.758,41.144 C104.098,41.088 103.539,41.23 103.08,41.574 C102.912,41.7 102.744,41.845 102.576,42.007 C102.281,42.09 101.968,42.195 101.619,42.348 C100.701,42.75 99.469,43.281 97.921,43.939 C96.373,44.599 94.681,45.244 92.847,45.874 C91.012,46.506 89.134,47.064 87.214,47.551 C85.292,48.039 83.559,48.282 82.011,48.282 C82.641,47.021 82.957,45.76 82.957,44.498 C82.957,43.238 82.583,42.133 81.839,41.187 C81.093,40.241 79.975,39.467 78.485,38.865 C76.993,38.263 75.101,37.962 72.808,37.962 C69.597,37.962 66.831,38.465 64.509,39.467 C62.834,40.191 61.391,41.054 60.164,42.046 C60.135,42.062 60.109,42.072 60.08,42.09 C59.448,42.434 58.188,43.109 56.296,44.111 C54.404,45.114 52.268,46.218 49.889,47.422 C47.51,48.626 45.074,49.787 42.579,50.905 C40.085,52.023 37.92,52.869 36.086,53.442 C34.251,54.074 32.804,54.446 31.743,54.56 C30.681,54.676 30.023,54.446 29.764,53.872 C29.506,53.3 29.635,52.31 30.152,50.905 C30.668,49.501 31.556,47.566 32.818,45.1 L35.312,40.112 C38.751,37.418 42.02,34.608 45.116,31.684 C48.212,28.76 51.02,25.879 53.544,23.041 C56.066,20.203 58.232,17.494 60.037,14.914 C61.842,12.334 63.204,10.041 64.122,8.034 C65.038,6.028 65.455,4.366 65.369,3.046 C65.283,1.728 64.58,0.926 63.262,0.638 C61.542,0.238 59.636,0.452 57.543,1.283 C55.449,2.115 53.343,3.376 51.222,5.067 C49.101,6.759 47.036,8.752 45.031,11.044 C43.023,13.338 41.218,15.774 39.613,18.354 C37.72,21.394 35.743,24.761 33.678,28.459 C31.615,32.157 29.664,35.756 27.83,39.252 C26.626,38.852 24.977,38.478 22.885,38.134 C20.792,37.79 18.556,37.804 16.177,38.177 C13.797,38.551 11.448,39.424 9.125,40.8 C6.802,42.176 4.812,44.326 3.148,47.25 C1.313,50.518 0.382,52.913 0.353,54.431 C0.325,55.951 0.783,56.925 1.729,57.355 C2.676,57.785 3.909,57.843 5.428,57.527 Z M70.229,41.488 C72.293,41.488 73.64,42.033 74.271,43.122 C73.295,43.008 72.379,43.094 71.519,43.38 C70.66,43.667 69.971,44.097 69.456,44.67 C68.939,45.244 68.71,45.874 68.768,46.562 C68.825,47.25 69.285,47.91 70.144,48.54 C70.489,48.828 70.861,49.085 71.262,49.314 C71.662,49.544 72.092,49.716 72.552,49.83 C71.405,51.264 69.914,52.496 68.08,53.528 C66.244,54.56 64.238,55.076 62.059,55.076 C60.339,55.076 59.193,54.374 58.62,52.969 C58.048,51.565 58.06,50.002 58.663,48.282 C59.265,46.562 60.525,45 62.447,43.595 C64.366,42.191 66.961,41.488 70.229,41.488 Z M40.946,29.878 C41.604,28.674 42.221,27.586 42.795,26.61 C44.285,24.03 45.876,21.407 47.568,18.741 C49.258,16.075 50.935,13.638 52.598,11.431 C54.261,9.224 55.852,7.432 57.371,6.056 C58.89,4.68 60.223,3.992 61.37,3.992 C62,3.992 62.2,4.465 61.972,5.411 C61.743,6.357 61.156,7.604 60.209,9.152 C59.263,10.7 58.029,12.492 56.511,14.527 C54.991,16.563 53.286,18.698 51.395,20.934 C49.502,23.17 47.482,25.392 45.332,27.599 C43.182,29.807 40.989,31.886 38.753,33.834 C39.556,32.402 40.286,31.082 40.946,29.878 Z M8.868,51.464 C9.126,50.662 9.569,49.73 10.201,48.669 C10.831,47.609 11.663,46.519 12.695,45.401 C13.727,44.283 14.93,43.337 16.306,42.563 C17.682,41.789 19.231,41.303 20.951,41.101 C22.671,40.901 24.533,41.174 26.541,41.918 C26.369,42.206 26.211,42.464 26.068,42.692 C25.923,42.922 25.795,43.18 25.68,43.466 C25.622,43.466 25.594,43.524 25.594,43.638 C23.989,44.785 22.283,45.947 20.478,47.121 C18.671,48.297 16.98,49.357 15.404,50.303 C13.826,51.249 12.437,51.98 11.233,52.496 C10.029,53.012 9.197,53.128 8.739,52.84 C8.567,52.726 8.61,52.268 8.868,51.464 Z"></path>
        <path d="M159.492,18.676 C159.836,18.046 159.879,17.545 159.621,17.171 C159.363,16.798 158.933,16.598 158.331,16.569 C157.729,16.541 157.041,16.67 156.268,16.956 C155.494,17.244 154.763,17.702 154.075,18.332 C153.617,18.792 153.288,19.293 153.086,19.837 C152.886,20.382 152.729,21.027 152.613,21.772 C152.499,22.518 152.327,23.32 152.097,24.18 C151.868,25.04 151.494,25.986 150.979,27.018 C150.579,27.706 150.391,28.237 150.419,28.609 C150.449,28.983 150.607,29.183 150.893,29.211 C151.18,29.24 151.538,29.154 151.968,28.953 C152.398,28.753 152.814,28.424 153.214,27.964 C153.387,27.792 153.717,27.405 154.203,26.803 C154.691,26.201 155.25,25.47 155.88,24.61 C156.512,23.75 157.157,22.804 157.816,21.772 C158.475,20.74 159.034,19.708 159.492,18.676 Z"></path>
        <path d="M191.727,50.862 C194.22,49.83 196.47,48.841 198.478,47.895 C200.484,46.949 202.161,46.132 203.508,45.444 C204.855,44.756 205.644,44.326 205.873,44.154 C206.273,43.867 206.546,43.538 206.69,43.165 C206.833,42.793 206.833,42.477 206.69,42.219 C206.545,41.961 206.273,41.789 205.873,41.703 C205.472,41.617 204.955,41.746 204.325,42.09 C203.865,42.319 203.063,42.707 201.917,43.251 C200.77,43.797 199.408,44.427 197.832,45.143 C196.255,45.861 194.534,46.62 192.672,47.422 C190.809,48.225 188.959,49.013 187.125,49.787 C185.289,50.561 183.526,51.264 181.836,51.894 C180.145,52.526 178.668,53.012 177.407,53.356 C175.514,53.872 173.851,54.188 172.419,54.302 C170.985,54.417 169.925,54.202 169.237,53.657 C168.549,53.113 168.276,52.167 168.42,50.819 C168.563,49.472 169.237,47.566 170.441,45.1 L172.54,40.986 C172.991,40.653 173.428,40.338 173.89,39.992 C173.888,39.989 173.884,39.985 173.882,39.981 C177.831,37.244 181.427,34.286 184.631,31.081 C186.579,31.081 188.458,31.068 190.264,31.038 C192.071,31.01 193.704,30.995 195.166,30.995 L198.864,30.995 L200.885,30.995 C201.688,30.995 202.289,30.852 202.692,30.565 C203.092,30.279 203.294,29.95 203.294,29.576 C203.294,29.204 203.093,28.874 202.692,28.587 C202.29,28.301 201.688,28.157 200.885,28.157 C200.254,28.157 198.65,28.2 196.07,28.286 C193.49,28.372 190.48,28.445 187.04,28.501 C189.448,25.807 191.54,23.141 193.318,20.503 C195.094,17.867 196.427,15.459 197.317,13.279 C198.205,11.101 198.591,9.28 198.478,7.818 C198.362,6.356 197.618,5.483 196.242,5.195 C192.802,4.393 189.605,5.095 186.653,7.302 C183.699,9.51 180.618,13.193 177.408,18.353 C176.432,19.901 175.429,21.565 174.398,23.341 C173.366,25.119 172.304,26.983 171.215,28.931 C168.863,28.989 166.743,29.017 164.852,29.017 L160.379,29.017 C159.635,28.961 159.061,29.047 158.659,29.275 C158.259,29.504 158.044,29.777 158.013,30.092 C157.986,30.407 158.099,30.694 158.358,30.952 C158.616,31.21 159.06,31.339 159.691,31.339 C160.092,31.339 161.225,31.325 163.087,31.296 C164.949,31.268 167.2,31.253 169.838,31.253 C168.634,33.375 167.501,35.482 166.442,37.574 C165.38,39.667 164.391,41.631 163.474,43.465 C163.328,43.748 163.199,44.025 163.063,44.303 C162.217,44.867 161.438,45.379 160.738,45.831 C159.423,46.678 158.603,47.205 158.278,47.411 C157.797,47.655 157.461,47.99 157.273,48.411 C157.085,48.833 157.042,49.209 157.144,49.539 C157.247,49.868 157.526,50.07 157.983,50.145 C158.44,50.221 159.058,50.056 159.836,49.656 C160.132,49.487 160.603,49.195 161.209,48.808 C161.163,48.947 161.11,49.088 161.067,49.225 C160.495,51.06 160.365,52.637 160.679,53.955 C160.995,55.275 161.855,56.277 163.259,56.965 C164.663,57.653 166.857,57.855 169.838,57.567 C171.786,57.395 174.009,56.965 176.503,56.277 C178.997,55.589 181.534,54.772 184.114,53.826 C186.694,52.88 189.232,51.894 191.727,50.862 Z M180.589,26.61 C182.079,24.03 183.427,21.636 184.631,19.429 C185.835,17.222 186.982,15.316 188.071,13.71 C189.159,12.106 190.22,10.844 191.253,9.926 C192.285,9.009 193.373,8.55 194.522,8.55 C195.324,8.55 195.567,9.167 195.252,10.399 C194.937,11.633 194.22,13.209 193.103,15.129 C191.985,17.051 190.536,19.201 188.759,21.579 C186.982,23.959 185.003,26.296 182.825,28.588 C182.193,28.646 181.606,28.661 181.062,28.631 C180.516,28.603 179.929,28.617 179.298,28.674 L180.589,26.61 Z M178.009,31.168 L180.245,31.168 C179.499,31.856 178.754,32.531 178.009,33.189 C177.264,33.849 176.489,34.494 175.688,35.124 L178.009,31.168 Z"></path>
        <path d="M436.221,42.047 C436.02,41.789 435.691,41.631 435.232,41.574 C434.773,41.517 434.287,41.632 433.77,41.918 C433.426,42.09 432.696,42.406 431.578,42.864 C430.46,43.323 429.112,43.84 427.536,44.412 C425.958,44.986 424.281,45.573 422.505,46.175 C420.727,46.777 419.022,47.308 417.388,47.766 C415.754,48.225 414.263,48.598 412.916,48.884 C411.568,49.172 410.579,49.286 409.949,49.228 C409.661,49.228 409.504,49.042 409.475,48.669 C409.446,48.297 409.503,47.839 409.647,47.293 C409.79,46.749 410.004,46.162 410.293,45.53 C410.579,44.9 410.865,44.298 411.152,43.724 C411.84,42.52 412.17,41.517 412.141,40.714 C412.112,39.912 411.826,39.31 411.282,38.908 C410.736,38.508 409.949,38.335 408.917,38.392 C407.885,38.45 406.737,38.68 405.477,39.08 C404.446,39.482 403.183,40.069 401.693,40.843 C400.202,41.617 398.669,42.491 397.092,43.466 C395.515,44.442 393.996,45.473 392.534,46.562 C391.072,47.652 389.825,48.684 388.793,49.658 C389.423,48.397 390.097,47.408 390.814,46.691 C391.531,45.975 392.032,45.13 392.319,44.154 C392.376,43.696 392.218,43.237 391.846,42.778 C391.473,42.32 390.986,41.947 390.384,41.66 C389.782,41.374 389.151,41.202 388.492,41.144 C387.832,41.088 387.245,41.23 386.728,41.574 C386.58,41.685 386.424,41.826 386.266,41.978 C386.113,42 385.953,42.034 385.784,42.09 C385.153,42.319 384.15,42.764 382.774,43.423 C381.398,44.083 379.793,44.828 377.958,45.659 C376.123,46.491 374.187,47.351 372.153,48.239 C370.117,49.129 368.168,49.931 366.305,50.647 C364.441,51.365 362.749,51.937 361.231,52.367 C359.711,52.797 358.579,52.984 357.834,52.926 C357.031,52.869 356.687,52.668 356.803,52.324 C356.917,51.98 357.16,51.579 357.533,51.12 C357.905,50.662 358.293,50.174 358.694,49.658 C359.094,49.142 359.21,48.684 359.038,48.282 C358.923,47.882 358.694,47.465 358.35,47.035 C358.006,46.605 357.619,46.218 357.189,45.874 C356.759,45.53 356.299,45.287 355.813,45.143 C355.325,45 354.824,45.043 354.308,45.272 C353.791,45.502 352.846,46.046 351.47,46.906 C350.094,47.766 348.659,48.669 347.17,49.615 C345.678,50.561 344.302,51.378 343.041,52.066 C341.779,52.754 341.034,53.012 340.806,52.84 C340.634,52.726 340.647,52.281 340.849,51.507 C341.049,50.733 341.436,49.83 342.01,48.798 C342.582,47.766 343.343,46.706 344.288,45.616 C345.234,44.528 346.409,43.638 347.814,42.95 C349.218,42.262 350.837,41.875 352.673,41.789 C354.507,41.703 356.57,42.12 358.864,43.036 C359.495,43.324 360.039,43.395 360.498,43.251 C360.957,43.109 361.286,42.894 361.487,42.606 C361.687,42.32 361.73,41.976 361.616,41.574 C361.501,41.174 361.243,40.858 360.843,40.628 C360.326,40.4 359.523,40.084 358.435,39.682 C357.345,39.282 356.055,38.966 354.565,38.736 C353.074,38.507 351.469,38.406 349.749,38.435 C348.029,38.465 346.295,38.779 344.547,39.381 C342.924,39.939 341.366,40.781 339.868,41.882 C339.729,41.937 339.583,42.006 339.43,42.09 C339.028,42.319 338.211,42.721 336.979,43.294 C335.746,43.868 334.255,44.541 332.507,45.315 C330.757,46.089 328.809,46.906 326.658,47.766 C324.509,48.626 322.329,49.458 320.122,50.26 C317.915,51.063 315.736,51.795 313.586,52.453 C311.437,53.113 309.472,53.614 307.695,53.958 C304.311,54.59 301.66,54.861 299.74,54.775 C297.819,54.689 296.442,54.345 295.612,53.743 C294.78,53.141 294.408,52.353 294.494,51.378 C294.58,50.404 294.968,49.314 295.655,48.11 C296.687,49.257 298.063,50.002 299.783,50.346 C301.504,50.69 303.209,50.69 304.9,50.346 C306.59,50.002 308.082,49.372 309.372,48.454 C310.662,47.537 311.393,46.362 311.565,44.928 C311.679,43.552 311.378,42.406 310.662,41.488 C309.945,40.571 308.942,39.897 307.652,39.467 C306.362,39.037 304.914,38.865 303.309,38.951 C301.704,39.037 300.054,39.353 298.364,39.897 C296.772,40.411 295.259,41.146 293.821,42.09 C293.395,42.278 292.734,42.549 291.829,42.907 C290.596,43.395 289.12,43.939 287.4,44.541 C285.679,45.143 283.831,45.76 281.853,46.39 C279.874,47.021 277.953,47.594 276.09,48.11 C274.227,48.626 272.522,49.027 270.973,49.314 C269.425,49.602 268.249,49.716 267.448,49.658 C267.16,49.658 267.018,49.429 267.018,48.97 C267.018,48.512 267.104,47.968 267.276,47.336 C267.448,46.706 267.676,46.046 267.964,45.358 C268.25,44.67 268.567,44.04 268.91,43.466 C269.598,42.262 269.928,41.273 269.899,40.499 C269.869,39.725 269.597,39.166 269.082,38.822 C268.566,38.478 267.82,38.335 266.846,38.392 C265.87,38.45 264.753,38.68 263.492,39.08 C262.173,39.539 260.725,40.313 259.149,41.402 C257.571,42.491 255.98,43.695 254.376,45.014 L256.526,40.8 C259.794,38.508 262.918,35.941 265.9,33.103 C268.88,30.265 271.589,27.384 274.027,24.46 C276.463,21.536 278.585,18.685 280.39,15.903 C282.197,13.123 283.558,10.614 284.475,8.378 C285.392,6.142 285.836,4.293 285.808,2.831 C285.779,1.369 285.134,0.524 283.873,0.294 C280.375,-0.336 276.807,0.797 273.166,3.691 C269.524,6.587 265.728,11.59 261.771,18.698 C260.509,20.934 258.976,23.643 257.169,26.825 C255.363,30.007 253.499,33.361 251.579,36.887 C249.657,40.413 247.738,43.939 245.817,47.465 C243.896,50.991 242.162,54.202 240.614,57.097 C239.066,59.993 237.805,62.401 236.83,64.321 C235.855,66.242 235.34,67.374 235.282,67.718 C235.168,68.406 235.325,68.965 235.755,69.395 C236.186,69.825 236.731,70.126 237.389,70.298 C238.049,70.47 238.722,70.485 239.41,70.341 C240.098,70.198 240.614,69.897 240.958,69.438 C241.073,69.266 241.461,68.608 242.119,67.46 C242.779,66.314 243.596,64.837 244.57,63.031 C245.546,61.225 246.664,59.176 247.924,56.882 C249.185,54.59 250.504,52.181 251.88,49.658 C253.542,48.168 255.177,46.949 256.782,46.003 C258.386,45.057 259.591,44.442 260.394,44.154 C260.508,44.957 260.609,45.802 260.695,46.691 C260.781,47.581 260.981,48.426 261.297,49.228 C261.611,50.032 262.071,50.72 262.673,51.292 C263.276,51.866 264.12,52.21 265.21,52.324 C266.471,52.496 268.019,52.468 269.855,52.238 C271.689,52.009 273.638,51.651 275.703,51.163 C277.767,50.677 279.859,50.103 281.981,49.443 C284.101,48.784 286.066,48.139 287.872,47.508 C288.242,47.379 288.596,47.251 288.946,47.124 C288.386,48.016 287.869,48.936 287.441,49.916 C286.839,51.292 286.71,52.582 287.054,53.786 C287.398,54.99 288.402,55.994 290.064,56.796 C291.727,57.6 294.42,57.972 298.148,57.914 C300.9,57.858 303.781,57.527 306.791,56.925 C309.802,56.323 312.782,55.578 315.735,54.689 C318.687,53.801 321.54,52.827 324.292,51.765 C327.045,50.705 329.509,49.701 331.688,48.755 C333.009,48.181 334.189,47.66 335.257,47.181 C335.243,47.205 335.228,47.225 335.214,47.249 C333.953,49.429 333.136,51.205 332.763,52.581 C332.391,53.957 332.305,55.032 332.505,55.806 C332.706,56.58 333.136,57.096 333.795,57.354 C334.454,57.612 335.229,57.698 336.116,57.612 C337.006,57.526 337.923,57.311 338.868,56.967 C339.814,56.623 340.687,56.251 341.491,55.849 C342.637,55.277 343.842,54.632 345.103,53.914 C346.364,53.198 347.54,52.525 348.629,51.893 C349.717,51.263 350.62,50.732 351.338,50.302 C352.054,49.872 352.469,49.629 352.585,49.571 C352.469,49.686 352.183,50.073 351.725,50.732 C351.265,51.392 350.936,52.138 350.736,52.968 C350.535,53.8 350.65,54.559 351.08,55.247 C351.511,55.935 352.613,56.365 354.392,56.537 C355.538,56.653 357.058,56.451 358.95,55.935 C360.843,55.419 362.891,54.774 365.099,54 C367.305,53.226 369.556,52.353 371.85,51.377 C374.142,50.403 376.279,49.472 378.257,48.582 C380.179,47.719 381.824,46.952 383.206,46.277 C382.723,47.082 382.246,47.904 381.781,48.754 C380.95,50.274 380.219,51.721 379.588,53.097 C378.958,54.473 378.556,55.449 378.384,56.021 C378.27,56.481 378.456,56.954 378.944,57.44 C379.431,57.928 380.018,58.3 380.707,58.558 C381.395,58.816 382.098,58.917 382.813,58.859 C383.531,58.802 384.06,58.486 384.405,57.913 C385.322,56.309 386.669,54.688 388.447,53.054 C390.223,51.42 392.072,49.915 393.994,48.539 C395.914,47.163 397.735,45.989 399.455,45.013 C401.175,44.039 402.407,43.437 403.153,43.207 C402.465,44.411 401.876,45.587 401.389,46.733 C400.902,47.881 400.616,48.898 400.53,49.786 C400.444,50.676 400.601,51.42 401.003,52.022 C401.403,52.624 402.149,52.955 403.239,53.011 C404.443,53.183 405.991,53.127 407.883,52.839 C409.775,52.552 411.81,52.137 413.989,51.592 C416.167,51.048 418.388,50.417 420.654,49.7 C422.918,48.984 425.025,48.296 426.974,47.636 C428.922,46.977 430.6,46.346 432.005,45.744 C433.409,45.142 434.37,44.699 434.886,44.411 C435.63,43.953 436.09,43.508 436.262,43.078 C436.434,42.648 436.421,42.305 436.221,42.047 Z M262.03,30.738 C262.774,29.305 263.434,28.101 264.008,27.126 C265.384,24.662 266.874,22.039 268.481,19.257 C270.085,16.477 271.663,13.94 273.21,11.646 C274.758,9.354 276.248,7.447 277.682,5.927 C279.115,4.408 280.405,3.648 281.552,3.648 C282.355,3.648 282.698,4.151 282.584,5.153 C282.469,6.156 281.968,7.518 281.079,9.238 C280.189,10.958 278.985,12.936 277.467,15.172 C275.947,17.408 274.242,19.702 272.35,22.052 C270.458,24.404 268.408,26.739 266.202,29.061 C263.994,31.383 261.773,33.49 259.537,35.382 C260.452,33.72 261.284,32.172 262.03,30.738 Z M301.202,42.477 C302.606,41.819 303.853,41.531 304.943,41.617 C306.032,41.703 306.906,42.062 307.566,42.692 C308.224,43.324 308.498,44.068 308.383,44.928 C308.267,45.845 307.751,46.562 306.834,47.078 C305.917,47.594 304.87,47.91 303.695,48.024 C302.519,48.14 301.315,48.039 300.083,47.723 C298.85,47.409 297.861,46.849 297.116,46.046 C298.436,44.326 299.797,43.137 301.202,42.477 Z"></path>
        <path d="M146.64,119.789 C146.266,119.646 145.765,119.746 145.135,120.09 C144.733,120.319 143.916,120.721 142.684,121.294 C141.451,121.868 139.96,122.541 138.212,123.315 C136.462,124.089 134.514,124.906 132.363,125.766 C130.214,126.626 128.034,127.458 125.827,128.26 C123.62,129.063 121.441,129.795 119.291,130.453 C117.142,131.113 115.177,131.614 113.4,131.958 C110.016,132.59 107.365,132.861 105.445,132.775 C103.524,132.689 102.147,132.345 101.317,131.743 C100.485,131.141 100.113,130.353 100.199,129.378 C100.285,128.404 100.673,127.314 101.36,126.11 C102.392,127.257 103.768,128.002 105.488,128.346 C107.209,128.69 108.914,128.69 110.605,128.346 C112.295,128.002 113.787,127.372 115.077,126.454 C116.367,125.537 117.098,124.362 117.27,122.928 C117.384,121.552 117.083,120.406 116.367,119.488 C115.65,118.571 114.647,117.897 113.357,117.467 C112.067,117.037 110.619,116.865 109.014,116.951 C107.409,117.037 105.759,117.353 104.069,117.897 C102.544,118.389 101.091,119.088 99.708,119.976 C99.628,120.012 99.55,120.045 99.469,120.09 C99.125,120.262 98.265,120.692 96.889,121.38 C95.513,122.068 93.822,122.871 91.815,123.788 C89.808,124.706 87.644,125.666 85.323,126.669 C83.001,127.673 80.735,128.591 78.529,129.421 C76.321,130.253 74.3,130.941 72.466,131.485 C70.63,132.03 69.254,132.274 68.338,132.216 C68.109,132.216 68.109,131.915 68.338,131.313 C68.567,130.711 68.91,129.924 69.37,128.948 C69.828,127.974 70.387,126.87 71.047,125.637 C71.705,124.405 72.351,123.186 72.982,121.982 C73.613,120.722 73.914,119.69 73.885,118.886 C73.856,118.084 73.555,117.482 72.982,117.08 C72.409,116.68 71.634,116.508 70.661,116.564 C69.685,116.622 68.567,116.88 67.307,117.338 C66.389,117.682 65.315,118.155 64.082,118.757 C62.849,119.359 61.573,120.047 60.255,120.821 C58.936,121.595 57.617,122.442 56.299,123.358 C54.98,124.276 53.776,125.164 52.687,126.024 L55.87,120.004 C58.966,117.998 61.933,115.648 64.77,112.952 C67.608,110.258 70.202,107.448 72.553,104.524 C74.904,101.6 76.952,98.691 78.702,95.795 C80.45,92.901 81.783,90.291 82.701,87.969 C83.617,85.647 84.077,83.712 84.077,82.164 C84.077,80.616 83.474,79.7 82.27,79.412 C80.55,79.068 78.874,79.098 77.24,79.498 C75.605,79.9 73.942,80.76 72.252,82.078 C70.561,83.397 68.812,85.232 67.006,87.582 C65.2,89.934 63.293,92.858 61.287,96.354 C60.025,98.59 58.678,100.998 57.245,103.578 C55.811,106.158 54.364,108.753 52.901,111.361 C51.439,113.97 50.034,116.507 48.687,118.972 C48.514,119.288 48.353,119.588 48.186,119.896 C48.057,119.951 47.924,120.013 47.785,120.09 C47.325,120.319 46.523,120.707 45.377,121.251 C44.23,121.797 42.868,122.427 41.292,123.143 C39.715,123.861 37.994,124.62 36.132,125.422 C34.269,126.225 32.419,127.013 30.585,127.787 C28.749,128.561 26.986,129.264 25.296,129.894 C23.605,130.526 22.128,131.012 20.867,131.356 C18.974,131.872 17.311,132.188 15.879,132.302 C14.445,132.417 13.385,132.202 12.697,131.657 C12.009,131.113 11.736,130.167 11.88,128.819 C12.023,127.472 12.697,125.566 13.901,123.1 L16.05,118.886 C20.523,115.906 24.534,112.637 28.09,109.082 C30.038,109.082 31.917,109.069 33.723,109.039 C35.53,109.011 37.163,108.996 38.625,108.996 L42.323,108.996 L44.344,108.996 C45.147,108.996 45.748,108.853 46.151,108.566 C46.551,108.28 46.753,107.951 46.753,107.577 C46.753,107.205 46.552,106.875 46.151,106.588 C45.749,106.302 45.147,106.158 44.344,106.158 C43.713,106.158 42.109,106.201 39.529,106.287 C36.949,106.373 33.939,106.446 30.499,106.502 C32.907,103.808 34.999,101.142 36.777,98.504 C38.553,95.868 39.886,93.46 40.776,91.28 C41.664,89.102 42.05,87.281 41.937,85.819 C41.821,84.357 41.077,83.484 39.701,83.196 C36.261,82.394 33.064,83.096 30.112,85.303 C27.158,87.511 24.077,91.194 20.867,96.354 C19.891,97.902 18.888,99.566 17.857,101.342 C16.825,103.12 15.763,104.984 14.674,106.932 C12.322,106.99 10.202,107.018 8.311,107.018 L3.838,107.018 C3.094,106.962 2.52,107.048 2.118,107.276 C1.718,107.505 1.503,107.778 1.472,108.093 C1.445,108.408 1.558,108.695 1.817,108.953 C2.075,109.211 2.519,109.34 3.15,109.34 C3.551,109.34 4.684,109.326 6.546,109.297 C8.408,109.269 10.659,109.254 13.297,109.254 C12.093,111.376 10.96,113.483 9.901,115.575 C8.839,117.668 7.85,119.632 6.933,121.466 C5.902,123.473 5.099,125.394 4.526,127.228 C3.954,129.063 3.824,130.64 4.138,131.958 C4.454,133.278 5.314,134.28 6.718,134.968 C8.122,135.656 10.316,135.858 13.297,135.57 C15.245,135.398 17.468,134.968 19.962,134.28 C22.456,133.592 24.993,132.775 27.573,131.829 C30.153,130.883 32.69,129.894 35.184,128.862 C37.677,127.83 39.927,126.841 41.935,125.895 C43.514,125.151 44.88,124.489 46.051,123.905 C45.741,124.5 45.442,125.081 45.159,125.637 C44.156,127.615 43.352,129.263 42.751,130.582 C42.148,131.902 41.878,132.732 41.934,133.076 C41.992,133.592 42.222,134.009 42.622,134.323 C43.023,134.638 43.512,134.854 44.084,134.968 C44.657,135.083 45.231,135.14 45.804,135.14 C46.378,135.14 46.836,135.083 47.18,134.968 C47.296,134.911 47.64,134.452 48.212,133.592 L48.298,133.592 C48.87,132.617 49.945,131.471 51.523,130.152 C53.1,128.834 54.777,127.558 56.554,126.325 C58.33,125.093 60.008,124.018 61.585,123.1 C63.161,122.183 64.265,121.638 64.896,121.466 C64.265,122.613 63.634,123.759 63.004,124.906 C62.488,125.882 61.957,126.942 61.413,128.088 C60.867,129.236 60.424,130.324 60.08,131.356 C59.334,133.42 59.319,134.94 60.037,135.914 C60.753,136.89 62.544,137.118 65.412,136.602 C66.73,136.373 68.465,135.901 70.615,135.183 C72.764,134.467 75.057,133.65 77.495,132.732 C79.931,131.816 82.425,130.827 84.976,129.765 C87.527,128.705 89.878,127.701 92.029,126.755 C92.807,126.412 93.535,126.088 94.238,125.771 C93.84,126.462 93.47,127.174 93.146,127.916 C92.544,129.292 92.415,130.582 92.759,131.786 C93.103,132.99 94.107,133.994 95.769,134.796 C97.432,135.6 100.125,135.972 103.853,135.914 C106.605,135.858 109.486,135.527 112.496,134.925 C115.507,134.323 118.487,133.578 121.44,132.689 C124.392,131.801 127.245,130.827 129.997,129.765 C132.75,128.705 135.214,127.701 137.393,126.755 C139.571,125.809 141.406,124.992 142.897,124.304 C144.387,123.616 145.334,123.158 145.735,122.928 C146.366,122.584 146.81,122.183 147.068,121.724 C147.326,121.266 147.412,120.864 147.326,120.52 C147.241,120.176 147.012,119.933 146.64,119.789 Z M61.414,109.125 C62.244,107.435 62.976,106.016 63.606,104.868 C64.867,102.288 66.214,99.695 67.648,97.085 C69.081,94.477 70.53,92.112 71.992,89.99 C73.454,87.869 74.873,86.135 76.249,84.787 C77.625,83.441 78.886,82.766 80.033,82.766 C80.721,82.766 80.978,83.325 80.806,84.443 C80.634,85.561 80.104,87.009 79.215,88.786 C78.325,90.564 77.164,92.599 75.732,94.892 C74.298,97.186 72.665,99.493 70.831,101.815 C68.995,104.137 67.047,106.403 64.982,108.609 C62.919,110.817 60.825,112.752 58.705,114.414 C59.679,112.58 60.582,110.817 61.414,109.125 Z M24.047,104.61 C25.537,102.03 26.885,99.636 28.089,97.429 C29.293,95.222 30.44,93.316 31.529,91.71 C32.617,90.106 33.678,88.844 34.711,87.926 C35.743,87.009 36.831,86.55 37.98,86.55 C38.782,86.55 39.025,87.167 38.71,88.399 C38.395,89.633 37.678,91.209 36.561,93.129 C35.443,95.051 33.994,97.201 32.217,99.579 C30.44,101.959 28.461,104.296 26.283,106.588 C25.651,106.646 25.064,106.661 24.52,106.631 C23.974,106.603 23.387,106.617 22.756,106.674 L24.047,104.61 Z M21.467,109.168 L23.703,109.168 C22.957,109.856 22.212,110.531 21.467,111.189 C20.722,111.849 19.947,112.494 19.146,113.124 L21.467,109.168 Z M106.907,120.477 C108.311,119.819 109.558,119.531 110.648,119.617 C111.737,119.703 112.611,120.062 113.271,120.692 C113.929,121.324 114.203,122.068 114.088,122.928 C113.972,123.845 113.456,124.562 112.539,125.078 C111.622,125.594 110.575,125.91 109.4,126.024 C108.224,126.14 107.02,126.039 105.788,125.723 C104.555,125.409 103.566,124.849 102.821,124.046 C104.141,122.326 105.502,121.137 106.907,120.477 Z"></path>
        <path d="M434.35,119.703 C433.949,119.617 433.432,119.746 432.802,120.09 C432.342,120.319 431.54,120.707 430.394,121.251 C429.247,121.797 427.885,122.427 426.309,123.143 C424.732,123.861 423.011,124.62 421.149,125.422 C419.286,126.225 417.436,127.013 415.602,127.787 C413.766,128.561 412.003,129.264 410.313,129.894 C408.622,130.526 407.145,131.012 405.884,131.356 C403.991,131.872 402.328,132.188 400.896,132.302 C399.462,132.417 398.402,132.202 397.714,131.657 C397.026,131.113 396.753,130.167 396.897,128.819 C397.04,127.472 397.714,125.566 398.918,123.1 L401.067,118.886 C405.54,115.906 409.551,112.637 413.107,109.082 C415.055,109.082 416.934,109.069 418.74,109.039 C420.547,109.011 422.18,108.996 423.642,108.996 L427.34,108.996 L429.361,108.996 C430.164,108.996 430.765,108.853 431.168,108.566 C431.568,108.28 431.77,107.951 431.77,107.577 C431.77,107.205 431.569,106.875 431.168,106.588 C430.766,106.302 430.164,106.158 429.361,106.158 C428.73,106.158 427.126,106.201 424.546,106.287 C421.966,106.373 418.956,106.446 415.516,106.502 C417.924,103.808 420.016,101.142 421.794,98.504 C423.57,95.868 424.903,93.46 425.793,91.28 C426.681,89.102 427.067,87.281 426.954,85.819 C426.838,84.357 426.094,83.484 424.718,83.196 C421.278,82.394 418.081,83.096 415.129,85.303 C412.175,87.511 409.094,91.194 405.884,96.354 C404.908,97.902 403.905,99.566 402.874,101.342 C401.842,103.12 400.78,104.984 399.691,106.932 C397.339,106.99 395.219,107.018 393.328,107.018 L388.855,107.018 C388.111,106.962 387.537,107.048 387.135,107.276 C386.735,107.505 386.52,107.778 386.489,108.093 C386.462,108.408 386.575,108.695 386.834,108.953 C387.092,109.211 387.536,109.34 388.167,109.34 C388.568,109.34 389.701,109.326 391.563,109.297 C393.425,109.269 395.676,109.254 398.314,109.254 C397.11,111.376 395.977,113.483 394.918,115.575 C394.136,117.117 393.406,118.565 392.703,119.967 C392.519,119.985 392.329,120.021 392.123,120.09 C391.492,120.319 390.489,120.764 389.113,121.423 C387.737,122.083 386.132,122.828 384.297,123.659 C382.462,124.491 380.526,125.351 378.492,126.239 C376.456,127.129 374.507,127.931 372.644,128.647 C370.78,129.365 369.088,129.937 367.57,130.367 C366.05,130.797 364.918,130.984 364.173,130.926 C363.37,130.869 363.026,130.668 363.142,130.324 C363.256,129.98 363.499,129.579 363.872,129.12 C364.244,128.662 364.632,128.174 365.033,127.658 C365.433,127.142 365.549,126.684 365.377,126.282 C365.262,125.882 365.033,125.465 364.689,125.035 C364.345,124.605 363.958,124.218 363.528,123.874 C363.098,123.53 362.638,123.287 362.152,123.143 C361.664,123 361.163,123.043 360.647,123.272 C360.13,123.502 359.185,124.046 357.809,124.906 C356.433,125.766 354.998,126.669 353.509,127.615 C352.017,128.561 350.641,129.378 349.38,130.066 C348.118,130.754 347.373,131.012 347.145,130.84 C346.973,130.726 346.986,130.281 347.188,129.507 C347.388,128.733 347.775,127.83 348.349,126.798 C348.921,125.766 349.682,124.706 350.627,123.616 C351.573,122.528 352.748,121.638 354.153,120.95 C355.557,120.262 357.176,119.875 359.012,119.789 C360.846,119.703 362.909,120.12 365.203,121.036 C365.834,121.324 366.378,121.395 366.837,121.251 C367.296,121.109 367.625,120.894 367.826,120.606 C368.026,120.32 368.069,119.976 367.955,119.574 C367.84,119.174 367.582,118.858 367.182,118.628 C366.665,118.4 365.862,118.084 364.774,117.682 C363.684,117.282 362.394,116.966 360.904,116.736 C359.413,116.507 357.808,116.406 356.088,116.435 C354.368,116.465 352.634,116.779 350.886,117.381 C349.263,117.939 347.705,118.781 346.207,119.882 C346.068,119.937 345.923,120.006 345.769,120.09 C345.367,120.319 344.55,120.721 343.318,121.294 C342.085,121.868 340.594,122.541 338.846,123.315 C337.096,124.089 335.148,124.906 332.997,125.766 C330.848,126.626 328.668,127.458 326.461,128.26 C324.254,129.063 322.075,129.795 319.925,130.453 C317.776,131.113 315.811,131.614 314.034,131.958 C310.65,132.59 307.999,132.861 306.079,132.775 C304.158,132.689 302.781,132.345 301.951,131.743 C301.119,131.141 300.747,130.353 300.833,129.378 C300.919,128.404 301.307,127.314 301.994,126.11 C303.026,127.257 304.402,128.002 306.122,128.346 C307.843,128.69 309.548,128.69 311.239,128.346 C312.929,128.002 314.421,127.372 315.711,126.454 C317.001,125.537 317.732,124.362 317.904,122.928 C318.018,121.552 317.717,120.406 317.001,119.488 C316.284,118.571 315.281,117.897 313.991,117.467 C312.701,117.037 311.253,116.865 309.648,116.951 C308.043,117.037 306.393,117.353 304.703,117.897 C303.109,118.411 301.595,119.148 300.155,120.094 C299.973,120.165 299.785,120.249 299.587,120.348 C299.013,120.636 297.895,121.165 296.233,121.939 C294.57,122.713 292.707,123.502 290.643,124.304 C288.579,125.108 286.543,125.824 284.537,126.454 C282.53,127.085 280.895,127.4 279.636,127.4 C278.832,127.4 278.101,127.142 277.443,126.626 C276.783,126.11 276.51,125.136 276.626,123.702 C277.143,123.072 277.629,122.442 278.089,121.81 C278.489,121.294 278.862,120.793 279.206,120.305 C279.551,119.819 279.809,119.431 279.98,119.144 C280.61,118.227 280.638,117.54 280.066,117.08 C279.492,116.622 278.747,116.766 277.83,117.51 C276.971,118.313 276.053,119.46 275.078,120.95 C274.102,122.442 273,123.96 271.767,125.508 C270.534,127.056 269.172,128.489 267.682,129.808 C266.19,131.128 264.556,132.016 262.78,132.474 C261.576,132.762 260.772,132.676 260.372,132.216 C259.971,131.758 259.842,131.084 259.985,130.195 C260.128,129.307 260.458,128.26 260.974,127.056 C261.49,125.852 262.049,124.691 262.651,123.573 C263.253,122.455 263.812,121.423 264.328,120.477 C264.845,119.531 265.159,118.858 265.274,118.456 C265.56,117.482 265.345,116.88 264.628,116.65 C263.911,116.422 263.023,116.465 261.963,116.779 C260.9,117.094 259.826,117.582 258.737,118.241 C257.647,118.901 256.874,119.603 256.415,120.348 C255.956,120.922 255.439,121.81 254.867,123.014 C254.294,124.218 253.835,125.508 253.491,126.884 C252.344,128.26 251.126,129.45 249.836,130.453 C248.547,131.457 247.155,132.13 245.665,132.474 C244.92,132.646 244.532,132.403 244.505,131.743 C244.475,131.084 244.618,130.224 244.935,129.163 C245.249,128.103 245.651,126.913 246.139,125.594 C246.625,124.276 247.041,123.014 247.386,121.81 C247.73,120.606 247.915,119.546 247.945,118.628 C247.973,117.712 247.644,117.138 246.956,116.908 C245.98,116.564 244.906,116.465 243.731,116.607 C242.555,116.751 241.366,117.024 240.162,117.424 C238.958,117.825 237.782,118.299 236.637,118.843 C235.81,119.236 235.064,119.598 234.357,119.946 C234.232,119.984 234.105,120.032 233.972,120.091 C233.571,120.263 232.481,120.808 230.704,121.725 C228.926,122.643 226.733,123.675 224.125,124.821 C221.516,125.968 218.648,127.157 215.524,128.39 C212.399,129.623 209.259,130.641 206.107,131.443 C207.883,129.895 209.275,128.19 210.278,126.326 C211.281,124.464 211.811,122.714 211.87,121.08 C211.926,119.446 211.425,118.085 210.364,116.995 C209.302,115.907 207.569,115.361 205.162,115.361 C203.441,115.361 201.722,115.562 200.002,115.963 C198.281,116.365 196.676,116.838 195.186,117.382 C193.695,117.927 192.376,118.486 191.23,119.059 C190.083,119.633 189.252,120.063 188.736,120.349 C188.22,120.637 187.877,120.98 187.705,121.381 C187.532,121.782 187.505,122.141 187.619,122.456 C187.734,122.772 187.963,123.001 188.307,123.144 C188.651,123.288 189.111,123.217 189.683,122.929 C190.658,122.413 191.674,121.927 192.736,121.467 C193.797,121.009 194.829,120.607 195.833,120.263 C196.835,119.919 197.753,119.647 198.585,119.446 C199.415,119.246 200.09,119.145 200.606,119.145 C201.81,119.145 202.597,119.476 202.971,120.134 C203.343,120.794 203.401,121.639 203.143,122.671 C202.885,123.703 202.382,124.793 201.638,125.939 C200.892,127.086 199.99,128.175 198.929,129.207 C197.867,130.239 196.693,131.085 195.403,131.744 C194.113,132.404 192.837,132.733 191.576,132.733 C190.945,132.733 190.545,132.548 190.373,132.174 C190.2,131.801 190.114,131.357 190.114,130.841 C190.114,130.325 190.099,129.796 190.071,129.25 C190.042,128.706 189.913,128.233 189.684,127.831 C189.168,126.971 188.466,126.498 187.577,126.412 C186.689,126.326 185.887,126.485 185.17,126.885 C184.453,127.287 183.938,127.861 183.622,128.605 C183.308,129.351 183.436,130.153 184.009,131.013 C184.41,131.587 184.899,132.174 185.471,132.776 C186.044,133.378 186.747,133.924 187.577,134.41 C188.409,134.898 189.384,135.3 190.502,135.614 C191.62,135.929 192.866,136.087 194.242,136.087 L194.415,136.087 C196.879,136.087 199.517,135.786 202.326,135.184 C205.135,134.582 207.945,133.838 210.755,132.948 C213.564,132.06 216.316,131.071 219.011,129.981 C221.705,128.893 224.128,127.846 226.278,126.842 C228.428,125.84 230.234,124.95 231.696,124.176 C232.908,123.534 233.755,123.071 234.277,122.763 C234.456,122.725 234.639,122.671 234.834,122.584 C235.923,122.126 236.826,121.739 237.543,121.423 C238.26,121.109 238.904,120.836 239.479,120.606 C239.651,120.55 239.608,120.851 239.35,121.509 C239.091,122.169 238.79,123.014 238.447,124.046 C238.103,125.078 237.759,126.226 237.415,127.486 C237.071,128.748 236.899,129.937 236.899,131.055 C236.899,132.173 237.128,133.149 237.587,133.979 C238.046,134.811 238.905,135.342 240.167,135.57 C242.403,135.971 244.652,135.714 246.918,134.796 C249.183,133.88 251.203,132.532 252.981,130.754 C253.095,131.902 253.454,132.919 254.056,133.807 C254.658,134.697 255.703,135.284 257.195,135.57 C258.17,135.799 259.158,135.842 260.162,135.699 C261.165,135.556 262.141,135.299 263.086,134.925 C264.032,134.552 264.948,134.108 265.838,133.592 C266.727,133.076 267.571,132.504 268.375,131.872 C270.21,130.439 271.958,128.776 273.621,126.884 C273.793,127.458 274.052,127.974 274.395,128.432 C274.681,128.834 275.096,129.206 275.642,129.55 C276.186,129.894 276.889,130.095 277.748,130.152 C280.728,130.324 284.012,129.708 287.596,128.303 C289.84,127.423 292.417,126.346 295.325,125.072 C294.753,125.98 294.223,126.917 293.787,127.916 C293.185,129.292 293.056,130.582 293.4,131.786 C293.744,132.99 294.748,133.994 296.41,134.796 C298.073,135.6 300.766,135.972 304.494,135.914 C307.246,135.858 310.127,135.527 313.137,134.925 C316.148,134.323 319.128,133.578 322.081,132.689 C325.033,131.801 327.886,130.827 330.638,129.765 C333.391,128.705 335.855,127.701 338.034,126.755 C339.355,126.181 340.535,125.66 341.604,125.181 C341.589,125.205 341.575,125.225 341.56,125.249 C340.299,127.429 339.482,129.205 339.109,130.581 C338.737,131.957 338.651,133.032 338.851,133.806 C339.052,134.58 339.482,135.096 340.141,135.354 C340.8,135.612 341.575,135.698 342.462,135.612 C343.352,135.526 344.269,135.311 345.214,134.967 C346.16,134.623 347.033,134.251 347.837,133.849 C348.983,133.277 350.188,132.632 351.449,131.914 C352.71,131.198 353.886,130.525 354.975,129.893 C356.063,129.263 356.966,128.732 357.684,128.302 C358.4,127.872 358.815,127.629 358.931,127.571 C358.815,127.686 358.529,128.073 358.071,128.732 C357.611,129.392 357.282,130.138 357.082,130.968 C356.881,131.8 356.996,132.559 357.426,133.247 C357.857,133.935 358.959,134.365 360.738,134.537 C361.884,134.653 363.404,134.451 365.296,133.935 C367.189,133.419 369.237,132.774 371.445,132 C373.651,131.226 375.902,130.353 378.196,129.377 C380.488,128.403 382.625,127.472 384.603,126.582 C386.581,125.694 388.271,124.905 389.676,124.217 C390.157,123.981 390.563,123.787 390.933,123.612 C390.381,124.851 389.912,126.059 389.547,127.227 C388.975,129.062 388.845,130.639 389.159,131.957 C389.475,133.277 390.335,134.279 391.739,134.967 C393.143,135.655 395.337,135.857 398.318,135.569 C400.266,135.397 402.489,134.967 404.983,134.279 C407.477,133.591 410.014,132.774 412.594,131.828 C415.174,130.882 417.711,129.893 420.205,128.861 C422.698,127.829 424.948,126.84 426.956,125.894 C428.962,124.948 430.639,124.131 431.986,123.443 C433.333,122.755 434.122,122.325 434.351,122.153 C434.751,121.866 435.024,121.537 435.168,121.164 C435.311,120.792 435.311,120.476 435.168,120.218 C435.022,119.961 434.75,119.789 434.35,119.703 Z M409.065,104.61 C410.555,102.03 411.903,99.636 413.107,97.429 C414.311,95.222 415.458,93.316 416.547,91.71 C417.635,90.106 418.696,88.844 419.729,87.926 C420.761,87.009 421.849,86.55 422.998,86.55 C423.8,86.55 424.043,87.167 423.728,88.399 C423.413,89.633 422.696,91.209 421.579,93.129 C420.461,95.051 419.012,97.201 417.235,99.579 C415.458,101.959 413.479,104.296 411.301,106.588 C410.669,106.646 410.082,106.661 409.538,106.631 C408.992,106.603 408.405,106.617 407.774,106.674 L409.065,104.61 Z M406.485,109.168 L408.721,109.168 C407.975,109.856 407.23,110.531 406.485,111.189 C405.74,111.849 404.965,112.494 404.164,113.124 L406.485,109.168 Z M307.543,120.477 C308.947,119.819 310.194,119.531 311.284,119.617 C312.373,119.703 313.247,120.062 313.907,120.692 C314.565,121.324 314.839,122.068 314.724,122.928 C314.608,123.845 314.092,124.562 313.175,125.078 C312.258,125.594 311.211,125.91 310.036,126.024 C308.86,126.14 307.656,126.039 306.424,125.723 C305.191,125.409 304.202,124.849 303.457,124.046 C304.776,122.326 306.138,121.137 307.543,120.477 Z"></path>
    </g>
</svg>